<mxfile host="app.diagrams.net" modified="2023-06-21T16:27:12.981Z" agent="Mozilla/5.0 (Macintosh; Intel Mac OS X 10_15_7) AppleWebKit/537.36 (KHTML, like Gecko) Chrome/114.0.0.0 Safari/537.36" etag="TAWpLzmuB311zRGLCb8h" version="21.3.8" type="github" pages="2">
  <diagram name="หน้า-1" id="BhB52wA6h6NO85pEY24t">
    <mxGraphModel dx="996" dy="879" grid="1" gridSize="10" guides="1" tooltips="1" connect="1" arrows="1" fold="1" page="1" pageScale="1" pageWidth="827" pageHeight="1169" math="0" shadow="0">
      <root>
        <mxCell id="0" />
        <mxCell id="1" parent="0" />
        <mxCell id="7q3_QXW4xUBUflNoUKIE-1" value="เริ่ม" style="ellipse;whiteSpace=wrap;html=1;" vertex="1" parent="1">
          <mxGeometry x="75" y="20" width="80" height="40" as="geometry" />
        </mxCell>
        <mxCell id="7q3_QXW4xUBUflNoUKIE-2" value="ตรวจสอบสิทธิ์การใช้งาน" style="rounded=1;whiteSpace=wrap;html=1;" vertex="1" parent="1">
          <mxGeometry x="45" y="100" width="140" height="30" as="geometry" />
        </mxCell>
        <mxCell id="7q3_QXW4xUBUflNoUKIE-3" value="" style="edgeStyle=orthogonalEdgeStyle;rounded=0;orthogonalLoop=1;jettySize=auto;html=1;" edge="1" parent="1" source="7q3_QXW4xUBUflNoUKIE-1" target="7q3_QXW4xUBUflNoUKIE-2">
          <mxGeometry relative="1" as="geometry" />
        </mxCell>
        <mxCell id="7q3_QXW4xUBUflNoUKIE-4" value="มี ?" style="rhombus;whiteSpace=wrap;html=1;" vertex="1" parent="1">
          <mxGeometry x="85" y="160" width="60" height="60" as="geometry" />
        </mxCell>
        <mxCell id="7q3_QXW4xUBUflNoUKIE-5" value="" style="edgeStyle=orthogonalEdgeStyle;rounded=0;orthogonalLoop=1;jettySize=auto;html=1;" edge="1" parent="1" source="7q3_QXW4xUBUflNoUKIE-2" target="7q3_QXW4xUBUflNoUKIE-4">
          <mxGeometry relative="1" as="geometry" />
        </mxCell>
        <mxCell id="7q3_QXW4xUBUflNoUKIE-6" style="edgeStyle=orthogonalEdgeStyle;rounded=0;orthogonalLoop=1;jettySize=auto;html=1;entryX=-0.022;entryY=0.676;entryDx=0;entryDy=0;entryPerimeter=0;" edge="1" parent="1" source="7q3_QXW4xUBUflNoUKIE-4" target="7q3_QXW4xUBUflNoUKIE-19">
          <mxGeometry relative="1" as="geometry">
            <Array as="points">
              <mxPoint x="115" y="696" />
            </Array>
            <mxPoint x="270" y="730" as="targetPoint" />
          </mxGeometry>
        </mxCell>
        <mxCell id="7q3_QXW4xUBUflNoUKIE-7" value="ไม่" style="edgeLabel;html=1;align=center;verticalAlign=middle;resizable=0;points=[];" vertex="1" connectable="0" parent="7q3_QXW4xUBUflNoUKIE-6">
          <mxGeometry x="-0.8925" y="1" relative="1" as="geometry">
            <mxPoint as="offset" />
          </mxGeometry>
        </mxCell>
        <mxCell id="7q3_QXW4xUBUflNoUKIE-8" value="ตรวจสอบ Account &lt;br&gt;สถานะการใช้งาน" style="rounded=1;whiteSpace=wrap;html=1;" vertex="1" parent="1">
          <mxGeometry x="261.35" y="169" width="170" height="40" as="geometry" />
        </mxCell>
        <mxCell id="7q3_QXW4xUBUflNoUKIE-9" value="" style="edgeStyle=orthogonalEdgeStyle;rounded=0;orthogonalLoop=1;jettySize=auto;html=1;" edge="1" parent="1" source="7q3_QXW4xUBUflNoUKIE-4" target="7q3_QXW4xUBUflNoUKIE-8">
          <mxGeometry relative="1" as="geometry">
            <Array as="points">
              <mxPoint x="225" y="190" />
              <mxPoint x="225" y="190" />
            </Array>
          </mxGeometry>
        </mxCell>
        <mxCell id="7q3_QXW4xUBUflNoUKIE-10" value="ใช่" style="edgeLabel;html=1;align=center;verticalAlign=middle;resizable=0;points=[];" vertex="1" connectable="0" parent="7q3_QXW4xUBUflNoUKIE-9">
          <mxGeometry x="-0.7797" y="-1" relative="1" as="geometry">
            <mxPoint as="offset" />
          </mxGeometry>
        </mxCell>
        <mxCell id="7q3_QXW4xUBUflNoUKIE-11" value="มีใน&lt;br&gt;ระบบ &lt;br&gt;?" style="rhombus;whiteSpace=wrap;html=1;" vertex="1" parent="1">
          <mxGeometry x="339" y="248" width="75" height="70" as="geometry" />
        </mxCell>
        <mxCell id="7q3_QXW4xUBUflNoUKIE-12" value="" style="edgeStyle=orthogonalEdgeStyle;rounded=0;orthogonalLoop=1;jettySize=auto;html=1;" edge="1" parent="1" source="7q3_QXW4xUBUflNoUKIE-8" target="7q3_QXW4xUBUflNoUKIE-11">
          <mxGeometry relative="1" as="geometry" />
        </mxCell>
        <mxCell id="7q3_QXW4xUBUflNoUKIE-13" value="status&lt;br style=&quot;border-color: var(--border-color);&quot;&gt;= 1 ?" style="rhombus;whiteSpace=wrap;html=1;" vertex="1" parent="1">
          <mxGeometry x="367" y="368" width="60" height="60" as="geometry" />
        </mxCell>
        <mxCell id="7q3_QXW4xUBUflNoUKIE-14" value="" style="edgeStyle=orthogonalEdgeStyle;rounded=0;orthogonalLoop=1;jettySize=auto;html=1;" edge="1" parent="1" source="7q3_QXW4xUBUflNoUKIE-11" target="7q3_QXW4xUBUflNoUKIE-13">
          <mxGeometry relative="1" as="geometry" />
        </mxCell>
        <mxCell id="7q3_QXW4xUBUflNoUKIE-15" value="ใช่" style="edgeLabel;html=1;align=center;verticalAlign=middle;resizable=0;points=[];" vertex="1" connectable="0" parent="7q3_QXW4xUBUflNoUKIE-14">
          <mxGeometry x="-0.3254" y="2" relative="1" as="geometry">
            <mxPoint x="-2" as="offset" />
          </mxGeometry>
        </mxCell>
        <mxCell id="7q3_QXW4xUBUflNoUKIE-16" value="Locked&lt;br style=&quot;border-color: var(--border-color);&quot;&gt;= 1 ?&amp;nbsp;" style="rhombus;whiteSpace=wrap;html=1;" vertex="1" parent="1">
          <mxGeometry x="367.75" y="498" width="60" height="60" as="geometry" />
        </mxCell>
        <mxCell id="7q3_QXW4xUBUflNoUKIE-17" value="" style="edgeStyle=orthogonalEdgeStyle;rounded=0;orthogonalLoop=1;jettySize=auto;html=1;" edge="1" parent="1" source="7q3_QXW4xUBUflNoUKIE-13" target="7q3_QXW4xUBUflNoUKIE-16">
          <mxGeometry relative="1" as="geometry" />
        </mxCell>
        <mxCell id="7q3_QXW4xUBUflNoUKIE-18" value="ไม่" style="edgeLabel;html=1;align=center;verticalAlign=middle;resizable=0;points=[];" vertex="1" connectable="0" parent="7q3_QXW4xUBUflNoUKIE-17">
          <mxGeometry x="-0.3745" relative="1" as="geometry">
            <mxPoint as="offset" />
          </mxGeometry>
        </mxCell>
        <mxCell id="7q3_QXW4xUBUflNoUKIE-19" value="1" style="ellipse;whiteSpace=wrap;html=1;aspect=fixed;" vertex="1" parent="1">
          <mxGeometry x="197.5" y="662" width="50" height="50" as="geometry" />
        </mxCell>
        <mxCell id="7q3_QXW4xUBUflNoUKIE-20" style="edgeStyle=orthogonalEdgeStyle;rounded=0;orthogonalLoop=1;jettySize=auto;html=1;exitX=0.492;exitY=0.949;exitDx=0;exitDy=0;exitPerimeter=0;" edge="1" parent="1" source="7q3_QXW4xUBUflNoUKIE-21" target="7q3_QXW4xUBUflNoUKIE-19">
          <mxGeometry relative="1" as="geometry">
            <Array as="points">
              <mxPoint x="166" y="376" />
              <mxPoint x="150" y="376" />
              <mxPoint x="150" y="680" />
            </Array>
          </mxGeometry>
        </mxCell>
        <mxCell id="7q3_QXW4xUBUflNoUKIE-21" value="rerturn Error Code&amp;nbsp;001&lt;span style=&quot;font-size: medium; text-align: start;&quot;&gt;&lt;/span&gt;" style="rounded=1;whiteSpace=wrap;html=1;" vertex="1" parent="1">
          <mxGeometry x="127.5" y="328" width="77.5" height="40" as="geometry" />
        </mxCell>
        <mxCell id="7q3_QXW4xUBUflNoUKIE-22" style="edgeStyle=orthogonalEdgeStyle;rounded=0;orthogonalLoop=1;jettySize=auto;html=1;entryX=1;entryY=1;entryDx=0;entryDy=0;" edge="1" parent="1" source="7q3_QXW4xUBUflNoUKIE-23" target="7q3_QXW4xUBUflNoUKIE-19">
          <mxGeometry relative="1" as="geometry">
            <Array as="points">
              <mxPoint x="302" y="705" />
              <mxPoint x="244" y="705" />
            </Array>
          </mxGeometry>
        </mxCell>
        <mxCell id="7q3_QXW4xUBUflNoUKIE-23" value="rerturn Error Code&amp;nbsp;011&lt;span style=&quot;font-size: medium; text-align: start;&quot;&gt;&lt;/span&gt;" style="rounded=1;whiteSpace=wrap;html=1;" vertex="1" parent="1">
          <mxGeometry x="263.5" y="646" width="77.5" height="40" as="geometry" />
        </mxCell>
        <mxCell id="7q3_QXW4xUBUflNoUKIE-24" value="" style="edgeStyle=orthogonalEdgeStyle;rounded=0;orthogonalLoop=1;jettySize=auto;html=1;entryX=0.467;entryY=0.027;entryDx=0;entryDy=0;entryPerimeter=0;" edge="1" parent="1" source="7q3_QXW4xUBUflNoUKIE-68" target="7q3_QXW4xUBUflNoUKIE-70">
          <mxGeometry relative="1" as="geometry" />
        </mxCell>
        <mxCell id="7q3_QXW4xUBUflNoUKIE-25" style="edgeStyle=orthogonalEdgeStyle;rounded=0;orthogonalLoop=1;jettySize=auto;html=1;" edge="1" parent="1" source="7q3_QXW4xUBUflNoUKIE-26" target="7q3_QXW4xUBUflNoUKIE-19">
          <mxGeometry relative="1" as="geometry">
            <mxPoint x="190" y="630" as="targetPoint" />
            <Array as="points">
              <mxPoint x="209" y="660" />
              <mxPoint x="209" y="660" />
            </Array>
          </mxGeometry>
        </mxCell>
        <mxCell id="7q3_QXW4xUBUflNoUKIE-26" value="rerturn Error Code&amp;nbsp;004&lt;span style=&quot;font-size: medium; text-align: start;&quot;&gt;&lt;/span&gt;" style="rounded=1;whiteSpace=wrap;html=1;" vertex="1" parent="1">
          <mxGeometry x="170" y="468" width="77.5" height="40" as="geometry" />
        </mxCell>
        <mxCell id="7q3_QXW4xUBUflNoUKIE-27" value="" style="edgeStyle=orthogonalEdgeStyle;rounded=0;orthogonalLoop=1;jettySize=auto;html=1;" edge="1" parent="1" source="7q3_QXW4xUBUflNoUKIE-13" target="7q3_QXW4xUBUflNoUKIE-63">
          <mxGeometry relative="1" as="geometry">
            <mxPoint x="300" y="380" as="targetPoint" />
          </mxGeometry>
        </mxCell>
        <mxCell id="7q3_QXW4xUBUflNoUKIE-28" value="ใช่" style="edgeLabel;html=1;align=center;verticalAlign=middle;resizable=0;points=[];" vertex="1" connectable="0" parent="7q3_QXW4xUBUflNoUKIE-27">
          <mxGeometry x="-0.4608" y="2" relative="1" as="geometry">
            <mxPoint as="offset" />
          </mxGeometry>
        </mxCell>
        <mxCell id="7q3_QXW4xUBUflNoUKIE-29" value="" style="edgeStyle=orthogonalEdgeStyle;rounded=0;orthogonalLoop=1;jettySize=auto;html=1;entryX=0.1;entryY=0.5;entryDx=0;entryDy=0;entryPerimeter=0;" edge="1" parent="1" source="7q3_QXW4xUBUflNoUKIE-16" target="7q3_QXW4xUBUflNoUKIE-32">
          <mxGeometry relative="1" as="geometry">
            <mxPoint x="419" y="528" as="targetPoint" />
            <Array as="points">
              <mxPoint x="460" y="528" />
              <mxPoint x="460" y="354" />
            </Array>
          </mxGeometry>
        </mxCell>
        <mxCell id="7q3_QXW4xUBUflNoUKIE-30" value="" style="edgeStyle=orthogonalEdgeStyle;rounded=0;orthogonalLoop=1;jettySize=auto;html=1;" edge="1" parent="1" source="7q3_QXW4xUBUflNoUKIE-32" target="7q3_QXW4xUBUflNoUKIE-33">
          <mxGeometry relative="1" as="geometry">
            <mxPoint x="535" y="528" as="targetPoint" />
            <Array as="points">
              <mxPoint x="590" y="354" />
            </Array>
          </mxGeometry>
        </mxCell>
        <mxCell id="7q3_QXW4xUBUflNoUKIE-31" value="ไม่" style="edgeLabel;html=1;align=center;verticalAlign=middle;resizable=0;points=[];" vertex="1" connectable="0" parent="7q3_QXW4xUBUflNoUKIE-30">
          <mxGeometry x="-0.3115" y="3" relative="1" as="geometry">
            <mxPoint as="offset" />
          </mxGeometry>
        </mxCell>
        <mxCell id="7q3_QXW4xUBUflNoUKIE-32" value="Super&lt;br&gt;Admin ?" style="rhombus;whiteSpace=wrap;html=1;" vertex="1" parent="1">
          <mxGeometry x="476.25" y="318" width="66" height="72" as="geometry" />
        </mxCell>
        <mxCell id="7q3_QXW4xUBUflNoUKIE-33" value="ตรวจสอบสิทธิ์การใช้งาน Company นี้ไหม&lt;span style=&quot;font-size: medium; text-align: start;&quot;&gt;&lt;/span&gt;" style="rounded=1;whiteSpace=wrap;html=1;" vertex="1" parent="1">
          <mxGeometry x="535" y="508" width="110" height="42" as="geometry" />
        </mxCell>
        <mxCell id="7q3_QXW4xUBUflNoUKIE-34" value="มี ?" style="rhombus;whiteSpace=wrap;html=1;" vertex="1" parent="1">
          <mxGeometry x="557" y="590" width="66" height="72" as="geometry" />
        </mxCell>
        <mxCell id="7q3_QXW4xUBUflNoUKIE-35" value="" style="edgeStyle=orthogonalEdgeStyle;rounded=0;orthogonalLoop=1;jettySize=auto;html=1;" edge="1" parent="1" source="7q3_QXW4xUBUflNoUKIE-33" target="7q3_QXW4xUBUflNoUKIE-34">
          <mxGeometry relative="1" as="geometry" />
        </mxCell>
        <mxCell id="7q3_QXW4xUBUflNoUKIE-36" value="Company &lt;br&gt;มีในระบบ&lt;br&gt;ไหม ?" style="rhombus;whiteSpace=wrap;html=1;" vertex="1" parent="1">
          <mxGeometry x="545" y="720" width="90" height="80" as="geometry" />
        </mxCell>
        <mxCell id="7q3_QXW4xUBUflNoUKIE-37" value="" style="edgeStyle=orthogonalEdgeStyle;rounded=0;orthogonalLoop=1;jettySize=auto;html=1;" edge="1" parent="1" source="7q3_QXW4xUBUflNoUKIE-34" target="7q3_QXW4xUBUflNoUKIE-36">
          <mxGeometry relative="1" as="geometry" />
        </mxCell>
        <mxCell id="7q3_QXW4xUBUflNoUKIE-38" value="ใช่" style="edgeLabel;html=1;align=center;verticalAlign=middle;resizable=0;points=[];" vertex="1" connectable="0" parent="7q3_QXW4xUBUflNoUKIE-37">
          <mxGeometry x="-0.2859" relative="1" as="geometry">
            <mxPoint as="offset" />
          </mxGeometry>
        </mxCell>
        <mxCell id="7q3_QXW4xUBUflNoUKIE-39" style="edgeStyle=orthogonalEdgeStyle;rounded=0;orthogonalLoop=1;jettySize=auto;html=1;" edge="1" parent="1">
          <mxGeometry relative="1" as="geometry">
            <mxPoint x="737.5" y="626" as="sourcePoint" />
            <mxPoint x="760" y="626" as="targetPoint" />
          </mxGeometry>
        </mxCell>
        <mxCell id="7q3_QXW4xUBUflNoUKIE-40" style="edgeStyle=orthogonalEdgeStyle;rounded=0;orthogonalLoop=1;jettySize=auto;html=1;" edge="1" parent="1" source="7q3_QXW4xUBUflNoUKIE-34">
          <mxGeometry relative="1" as="geometry">
            <mxPoint x="660" y="626" as="targetPoint" />
          </mxGeometry>
        </mxCell>
        <mxCell id="7q3_QXW4xUBUflNoUKIE-41" value="ไม่" style="edgeLabel;html=1;align=center;verticalAlign=middle;resizable=0;points=[];" vertex="1" connectable="0" parent="7q3_QXW4xUBUflNoUKIE-40">
          <mxGeometry x="-0.0865" y="2" relative="1" as="geometry">
            <mxPoint as="offset" />
          </mxGeometry>
        </mxCell>
        <mxCell id="7q3_QXW4xUBUflNoUKIE-42" style="edgeStyle=orthogonalEdgeStyle;rounded=0;orthogonalLoop=1;jettySize=auto;html=1;entryX=1;entryY=0.5;entryDx=0;entryDy=0;" edge="1" parent="1" source="7q3_QXW4xUBUflNoUKIE-44" target="88ahwrfj6JSMkXwkCL4q-1">
          <mxGeometry relative="1" as="geometry">
            <mxPoint x="483.72" y="880" as="targetPoint" />
          </mxGeometry>
        </mxCell>
        <mxCell id="7q3_QXW4xUBUflNoUKIE-43" value="ใช่" style="edgeLabel;html=1;align=center;verticalAlign=middle;resizable=0;points=[];" vertex="1" connectable="0" parent="7q3_QXW4xUBUflNoUKIE-42">
          <mxGeometry x="-0.0994" relative="1" as="geometry">
            <mxPoint as="offset" />
          </mxGeometry>
        </mxCell>
        <mxCell id="7q3_QXW4xUBUflNoUKIE-44" value="Company &lt;br&gt;Active ?" style="rhombus;whiteSpace=wrap;html=1;" vertex="1" parent="1">
          <mxGeometry x="545" y="840" width="90" height="80" as="geometry" />
        </mxCell>
        <mxCell id="7q3_QXW4xUBUflNoUKIE-45" value="ใช่" style="edgeStyle=orthogonalEdgeStyle;rounded=0;orthogonalLoop=1;jettySize=auto;html=1;" edge="1" parent="1" source="7q3_QXW4xUBUflNoUKIE-36" target="7q3_QXW4xUBUflNoUKIE-44">
          <mxGeometry relative="1" as="geometry" />
        </mxCell>
        <mxCell id="7q3_QXW4xUBUflNoUKIE-46" value="" style="edgeStyle=orthogonalEdgeStyle;rounded=0;orthogonalLoop=1;jettySize=auto;html=1;" edge="1" parent="1" source="7q3_QXW4xUBUflNoUKIE-36">
          <mxGeometry relative="1" as="geometry">
            <mxPoint x="685" y="760" as="targetPoint" />
          </mxGeometry>
        </mxCell>
        <mxCell id="7q3_QXW4xUBUflNoUKIE-47" value="ไม่" style="edgeLabel;html=1;align=center;verticalAlign=middle;resizable=0;points=[];" vertex="1" connectable="0" parent="7q3_QXW4xUBUflNoUKIE-46">
          <mxGeometry x="-0.1127" relative="1" as="geometry">
            <mxPoint as="offset" />
          </mxGeometry>
        </mxCell>
        <mxCell id="7q3_QXW4xUBUflNoUKIE-48" value="" style="edgeStyle=orthogonalEdgeStyle;rounded=0;orthogonalLoop=1;jettySize=auto;html=1;" edge="1" parent="1" source="7q3_QXW4xUBUflNoUKIE-44" target="7q3_QXW4xUBUflNoUKIE-83">
          <mxGeometry relative="1" as="geometry">
            <mxPoint x="685" y="880" as="targetPoint" />
          </mxGeometry>
        </mxCell>
        <mxCell id="7q3_QXW4xUBUflNoUKIE-49" value="ไม่" style="edgeLabel;html=1;align=center;verticalAlign=middle;resizable=0;points=[];" vertex="1" connectable="0" parent="7q3_QXW4xUBUflNoUKIE-48">
          <mxGeometry x="-0.2152" y="2" relative="1" as="geometry">
            <mxPoint as="offset" />
          </mxGeometry>
        </mxCell>
        <mxCell id="7q3_QXW4xUBUflNoUKIE-52" style="edgeStyle=orthogonalEdgeStyle;rounded=0;orthogonalLoop=1;jettySize=auto;html=1;entryX=1;entryY=0.5;entryDx=0;entryDy=0;" edge="1" parent="1" source="7q3_QXW4xUBUflNoUKIE-53" target="7q3_QXW4xUBUflNoUKIE-121">
          <mxGeometry relative="1" as="geometry" />
        </mxCell>
        <mxCell id="7q3_QXW4xUBUflNoUKIE-53" value="2" style="ellipse;whiteSpace=wrap;html=1;aspect=fixed;" vertex="1" parent="1">
          <mxGeometry x="698.75" y="970" width="50" height="50" as="geometry" />
        </mxCell>
        <mxCell id="7q3_QXW4xUBUflNoUKIE-54" style="edgeStyle=orthogonalEdgeStyle;rounded=0;orthogonalLoop=1;jettySize=auto;html=1;entryX=1;entryY=0.5;entryDx=0;entryDy=0;" edge="1" parent="1" source="7q3_QXW4xUBUflNoUKIE-73" target="7q3_QXW4xUBUflNoUKIE-53">
          <mxGeometry relative="1" as="geometry">
            <mxPoint x="785" y="780" as="targetPoint" />
            <Array as="points">
              <mxPoint x="910" y="692" />
              <mxPoint x="910" y="995" />
            </Array>
            <mxPoint x="800.0285714285715" y="646" as="sourcePoint" />
          </mxGeometry>
        </mxCell>
        <mxCell id="7q3_QXW4xUBUflNoUKIE-55" style="edgeStyle=orthogonalEdgeStyle;rounded=0;orthogonalLoop=1;jettySize=auto;html=1;entryX=0;entryY=0.5;entryDx=0;entryDy=0;" edge="1" parent="1" target="7q3_QXW4xUBUflNoUKIE-79">
          <mxGeometry relative="1" as="geometry">
            <Array as="points">
              <mxPoint x="780" y="760" />
              <mxPoint x="780" y="760" />
            </Array>
            <mxPoint x="762.5" y="760.037037037037" as="sourcePoint" />
          </mxGeometry>
        </mxCell>
        <mxCell id="7q3_QXW4xUBUflNoUKIE-56" value="" style="edgeStyle=orthogonalEdgeStyle;rounded=0;orthogonalLoop=1;jettySize=auto;html=1;entryX=0.5;entryY=0;entryDx=0;entryDy=0;" edge="1" parent="1" source="7q3_QXW4xUBUflNoUKIE-57" target="7q3_QXW4xUBUflNoUKIE-21">
          <mxGeometry relative="1" as="geometry" />
        </mxCell>
        <mxCell id="7q3_QXW4xUBUflNoUKIE-57" value="บันทึกข้อมูล&lt;span style=&quot;font-size: medium; text-align: start;&quot;&gt;&lt;/span&gt;" style="rounded=1;whiteSpace=wrap;html=1;" vertex="1" parent="1">
          <mxGeometry x="127.5" y="263" width="77.5" height="40" as="geometry" />
        </mxCell>
        <mxCell id="7q3_QXW4xUBUflNoUKIE-58" value="" style="edgeStyle=orthogonalEdgeStyle;rounded=0;orthogonalLoop=1;jettySize=auto;html=1;" edge="1" parent="1" source="7q3_QXW4xUBUflNoUKIE-11" target="7q3_QXW4xUBUflNoUKIE-61">
          <mxGeometry relative="1" as="geometry">
            <mxPoint x="159" y="338" as="targetPoint" />
            <mxPoint x="309" y="283" as="sourcePoint" />
          </mxGeometry>
        </mxCell>
        <mxCell id="7q3_QXW4xUBUflNoUKIE-59" value="ไม่" style="edgeLabel;html=1;align=center;verticalAlign=middle;resizable=0;points=[];" vertex="1" connectable="0" parent="7q3_QXW4xUBUflNoUKIE-58">
          <mxGeometry x="-0.6573" y="2" relative="1" as="geometry">
            <mxPoint as="offset" />
          </mxGeometry>
        </mxCell>
        <mxCell id="7q3_QXW4xUBUflNoUKIE-60" style="edgeStyle=orthogonalEdgeStyle;rounded=0;orthogonalLoop=1;jettySize=auto;html=1;" edge="1" parent="1" source="7q3_QXW4xUBUflNoUKIE-61" target="7q3_QXW4xUBUflNoUKIE-57">
          <mxGeometry relative="1" as="geometry" />
        </mxCell>
        <mxCell id="7q3_QXW4xUBUflNoUKIE-61" value="สร้างข้อมูล ActivityLog&lt;span style=&quot;font-size: medium; text-align: start;&quot;&gt;&lt;/span&gt;" style="rounded=1;whiteSpace=wrap;html=1;" vertex="1" parent="1">
          <mxGeometry x="230" y="263" width="77.5" height="40" as="geometry" />
        </mxCell>
        <mxCell id="7q3_QXW4xUBUflNoUKIE-62" style="edgeStyle=orthogonalEdgeStyle;rounded=0;orthogonalLoop=1;jettySize=auto;html=1;" edge="1" parent="1" source="7q3_QXW4xUBUflNoUKIE-63" target="7q3_QXW4xUBUflNoUKIE-65">
          <mxGeometry relative="1" as="geometry" />
        </mxCell>
        <mxCell id="7q3_QXW4xUBUflNoUKIE-63" value="สร้างข้อมูล ActivityLog&lt;span style=&quot;font-size: medium; text-align: start;&quot;&gt;&lt;/span&gt;" style="rounded=1;whiteSpace=wrap;html=1;" vertex="1" parent="1">
          <mxGeometry x="261.35" y="378" width="77.5" height="40" as="geometry" />
        </mxCell>
        <mxCell id="7q3_QXW4xUBUflNoUKIE-64" style="edgeStyle=orthogonalEdgeStyle;rounded=0;orthogonalLoop=1;jettySize=auto;html=1;entryX=0.5;entryY=0;entryDx=0;entryDy=0;" edge="1" parent="1" source="7q3_QXW4xUBUflNoUKIE-65" target="7q3_QXW4xUBUflNoUKIE-26">
          <mxGeometry relative="1" as="geometry">
            <Array as="points">
              <mxPoint x="194" y="438" />
            </Array>
          </mxGeometry>
        </mxCell>
        <mxCell id="7q3_QXW4xUBUflNoUKIE-65" value="บันทึกข้อมูล&lt;span style=&quot;font-size: medium; text-align: start;&quot;&gt;&lt;/span&gt;" style="rounded=1;whiteSpace=wrap;html=1;" vertex="1" parent="1">
          <mxGeometry x="170" y="378" width="77.5" height="40" as="geometry" />
        </mxCell>
        <mxCell id="7q3_QXW4xUBUflNoUKIE-66" value="" style="edgeStyle=orthogonalEdgeStyle;rounded=0;orthogonalLoop=1;jettySize=auto;html=1;" edge="1" parent="1" source="7q3_QXW4xUBUflNoUKIE-16" target="7q3_QXW4xUBUflNoUKIE-68">
          <mxGeometry relative="1" as="geometry">
            <mxPoint x="368" y="528" as="sourcePoint" />
            <mxPoint x="328" y="585" as="targetPoint" />
          </mxGeometry>
        </mxCell>
        <mxCell id="7q3_QXW4xUBUflNoUKIE-67" value="ใช่" style="edgeLabel;html=1;align=center;verticalAlign=middle;resizable=0;points=[];" vertex="1" connectable="0" parent="7q3_QXW4xUBUflNoUKIE-66">
          <mxGeometry x="-0.4608" y="1" relative="1" as="geometry">
            <mxPoint as="offset" />
          </mxGeometry>
        </mxCell>
        <mxCell id="7q3_QXW4xUBUflNoUKIE-68" value="สร้างข้อมูล ActivityLog&lt;span style=&quot;font-size: medium; text-align: start;&quot;&gt;&lt;/span&gt;" style="rounded=1;whiteSpace=wrap;html=1;" vertex="1" parent="1">
          <mxGeometry x="261.35" y="508" width="77.5" height="40" as="geometry" />
        </mxCell>
        <mxCell id="7q3_QXW4xUBUflNoUKIE-69" value="" style="edgeStyle=orthogonalEdgeStyle;rounded=0;orthogonalLoop=1;jettySize=auto;html=1;" edge="1" parent="1" source="7q3_QXW4xUBUflNoUKIE-70" target="7q3_QXW4xUBUflNoUKIE-23">
          <mxGeometry relative="1" as="geometry" />
        </mxCell>
        <mxCell id="7q3_QXW4xUBUflNoUKIE-70" value="บันทึกข้อมูล&lt;span style=&quot;font-size: medium; text-align: start;&quot;&gt;&lt;/span&gt;" style="rounded=1;whiteSpace=wrap;html=1;" vertex="1" parent="1">
          <mxGeometry x="263.5" y="580" width="77.5" height="40" as="geometry" />
        </mxCell>
        <mxCell id="7q3_QXW4xUBUflNoUKIE-71" style="edgeStyle=orthogonalEdgeStyle;rounded=0;orthogonalLoop=1;jettySize=auto;html=1;entryX=0.5;entryY=0;entryDx=0;entryDy=0;" edge="1" parent="1" source="7q3_QXW4xUBUflNoUKIE-72" target="7q3_QXW4xUBUflNoUKIE-73">
          <mxGeometry relative="1" as="geometry" />
        </mxCell>
        <mxCell id="7q3_QXW4xUBUflNoUKIE-72" value="บันทึกข้อมูล" style="rounded=1;whiteSpace=wrap;html=1;" vertex="1" parent="1">
          <mxGeometry x="760" y="606" width="77.5" height="40" as="geometry" />
        </mxCell>
        <mxCell id="7q3_QXW4xUBUflNoUKIE-73" value="rerturn Error Code&amp;nbsp;002&lt;span style=&quot;font-size: medium; text-align: start;&quot;&gt;&lt;/span&gt;" style="rounded=1;whiteSpace=wrap;html=1;" vertex="1" parent="1">
          <mxGeometry x="760" y="672" width="77.5" height="40" as="geometry" />
        </mxCell>
        <mxCell id="7q3_QXW4xUBUflNoUKIE-74" value="สร้างข้อมูล ActivityLog&lt;span style=&quot;font-size: medium; text-align: start;&quot;&gt;&lt;/span&gt;" style="rounded=1;whiteSpace=wrap;html=1;" vertex="1" parent="1">
          <mxGeometry x="660" y="606" width="77.5" height="40" as="geometry" />
        </mxCell>
        <mxCell id="7q3_QXW4xUBUflNoUKIE-75" style="edgeStyle=orthogonalEdgeStyle;rounded=0;orthogonalLoop=1;jettySize=auto;html=1;" edge="1" parent="1" source="7q3_QXW4xUBUflNoUKIE-76">
          <mxGeometry relative="1" as="geometry">
            <mxPoint x="910" y="820" as="targetPoint" />
          </mxGeometry>
        </mxCell>
        <mxCell id="7q3_QXW4xUBUflNoUKIE-76" value="rerturn Error Code&amp;nbsp;007&lt;span style=&quot;font-size: medium; text-align: start;&quot;&gt;&lt;/span&gt;" style="rounded=1;whiteSpace=wrap;html=1;" vertex="1" parent="1">
          <mxGeometry x="790" y="800" width="77.5" height="40" as="geometry" />
        </mxCell>
        <mxCell id="7q3_QXW4xUBUflNoUKIE-77" value="สร้างข้อมูล ActivityLog&lt;span style=&quot;font-size: medium; text-align: start;&quot;&gt;&lt;/span&gt;" style="rounded=1;whiteSpace=wrap;html=1;" vertex="1" parent="1">
          <mxGeometry x="685" y="740" width="77.5" height="40" as="geometry" />
        </mxCell>
        <mxCell id="7q3_QXW4xUBUflNoUKIE-78" style="edgeStyle=orthogonalEdgeStyle;rounded=0;orthogonalLoop=1;jettySize=auto;html=1;" edge="1" parent="1" source="7q3_QXW4xUBUflNoUKIE-79" target="7q3_QXW4xUBUflNoUKIE-76">
          <mxGeometry relative="1" as="geometry" />
        </mxCell>
        <mxCell id="7q3_QXW4xUBUflNoUKIE-79" value="บันทึกข้อมูล" style="rounded=1;whiteSpace=wrap;html=1;" vertex="1" parent="1">
          <mxGeometry x="790" y="740" width="77.5" height="40" as="geometry" />
        </mxCell>
        <mxCell id="7q3_QXW4xUBUflNoUKIE-80" style="edgeStyle=orthogonalEdgeStyle;rounded=0;orthogonalLoop=1;jettySize=auto;html=1;" edge="1" parent="1" source="7q3_QXW4xUBUflNoUKIE-81" target="7q3_QXW4xUBUflNoUKIE-53">
          <mxGeometry relative="1" as="geometry">
            <mxPoint x="829" y="990" as="targetPoint" />
          </mxGeometry>
        </mxCell>
        <mxCell id="7q3_QXW4xUBUflNoUKIE-81" value="rerturn Error Code&amp;nbsp;051&lt;span style=&quot;font-size: medium; text-align: start;&quot;&gt;&lt;/span&gt;" style="rounded=1;whiteSpace=wrap;html=1;" vertex="1" parent="1">
          <mxGeometry x="790" y="920" width="77.5" height="40" as="geometry" />
        </mxCell>
        <mxCell id="7q3_QXW4xUBUflNoUKIE-82" style="edgeStyle=orthogonalEdgeStyle;rounded=0;orthogonalLoop=1;jettySize=auto;html=1;entryX=-0.036;entryY=0.462;entryDx=0;entryDy=0;entryPerimeter=0;" edge="1" parent="1" source="7q3_QXW4xUBUflNoUKIE-83" target="7q3_QXW4xUBUflNoUKIE-85">
          <mxGeometry relative="1" as="geometry" />
        </mxCell>
        <mxCell id="7q3_QXW4xUBUflNoUKIE-83" value="สร้างข้อมูล ActivityLog&lt;span style=&quot;font-size: medium; text-align: start;&quot;&gt;&lt;/span&gt;" style="rounded=1;whiteSpace=wrap;html=1;" vertex="1" parent="1">
          <mxGeometry x="682.5" y="860" width="77.5" height="40" as="geometry" />
        </mxCell>
        <mxCell id="7q3_QXW4xUBUflNoUKIE-84" style="edgeStyle=orthogonalEdgeStyle;rounded=0;orthogonalLoop=1;jettySize=auto;html=1;" edge="1" parent="1" source="7q3_QXW4xUBUflNoUKIE-85" target="7q3_QXW4xUBUflNoUKIE-81">
          <mxGeometry relative="1" as="geometry" />
        </mxCell>
        <mxCell id="7q3_QXW4xUBUflNoUKIE-85" value="บันทึกข้อมูล" style="rounded=1;whiteSpace=wrap;html=1;" vertex="1" parent="1">
          <mxGeometry x="790" y="860" width="77.5" height="40" as="geometry" />
        </mxCell>
        <mxCell id="7q3_QXW4xUBUflNoUKIE-123" style="edgeStyle=orthogonalEdgeStyle;rounded=0;orthogonalLoop=1;jettySize=auto;html=1;" edge="1" parent="1" source="7q3_QXW4xUBUflNoUKIE-124" target="7q3_QXW4xUBUflNoUKIE-121">
          <mxGeometry relative="1" as="geometry">
            <Array as="points">
              <mxPoint x="100" y="1780" />
            </Array>
          </mxGeometry>
        </mxCell>
        <mxCell id="7q3_QXW4xUBUflNoUKIE-124" value="1" style="ellipse;whiteSpace=wrap;html=1;aspect=fixed;" vertex="1" parent="1">
          <mxGeometry x="75" y="1410" width="50" height="50" as="geometry" />
        </mxCell>
        <mxCell id="88ahwrfj6JSMkXwkCL4q-2" value="" style="edgeStyle=orthogonalEdgeStyle;rounded=0;orthogonalLoop=1;jettySize=auto;html=1;" edge="1" parent="1" source="7q3_QXW4xUBUflNoUKIE-32" target="88ahwrfj6JSMkXwkCL4q-1">
          <mxGeometry relative="1" as="geometry">
            <mxPoint x="453.72727272727275" y="850.0072727272725" as="targetPoint" />
            <mxPoint x="509" y="390" as="sourcePoint" />
            <Array as="points">
              <mxPoint x="509" y="540" />
              <mxPoint x="440" y="540" />
            </Array>
          </mxGeometry>
        </mxCell>
        <mxCell id="88ahwrfj6JSMkXwkCL4q-3" value="ใช่" style="edgeLabel;html=1;align=center;verticalAlign=middle;resizable=0;points=[];" vertex="1" connectable="0" parent="88ahwrfj6JSMkXwkCL4q-2">
          <mxGeometry x="-0.3215" y="2" relative="1" as="geometry">
            <mxPoint as="offset" />
          </mxGeometry>
        </mxCell>
        <mxCell id="88ahwrfj6JSMkXwkCL4q-5" value="" style="edgeStyle=orthogonalEdgeStyle;rounded=0;orthogonalLoop=1;jettySize=auto;html=1;" edge="1" parent="1" source="88ahwrfj6JSMkXwkCL4q-1" target="88ahwrfj6JSMkXwkCL4q-6">
          <mxGeometry relative="1" as="geometry">
            <mxPoint x="435" y="766" as="targetPoint" />
          </mxGeometry>
        </mxCell>
        <mxCell id="88ahwrfj6JSMkXwkCL4q-1" value="&lt;font style=&quot;font-size: 12px;&quot;&gt;ตรวจสอบ&lt;span style=&quot;text-align: start;&quot;&gt;&lt;/span&gt;รายละเอียดในหัวข้อ&lt;span style=&quot;text-align: start; background-color: initial; font-variant-numeric: normal; font-variant-east-asian: normal; font-variant-alternates: normal; font-kerning: auto; font-optical-sizing: auto; font-feature-settings: normal; font-variation-settings: normal; font-stretch: normal; line-height: normal; font-family: &amp;quot;Helvetica Neue&amp;quot;;&quot; class=&quot;s1&quot;&gt; &lt;/span&gt;&lt;span style=&quot;font-family: &amp;quot;.ThonburiUI&amp;quot;; text-align: start; background-color: initial;&quot;&gt;ข้อมูลสำคัญทางการเงินซ้ำซ้อน&lt;/span&gt;&lt;/font&gt;" style="rounded=1;whiteSpace=wrap;html=1;" vertex="1" parent="1">
          <mxGeometry x="370" y="636" width="130" height="60" as="geometry" />
        </mxCell>
        <mxCell id="88ahwrfj6JSMkXwkCL4q-40" style="edgeStyle=orthogonalEdgeStyle;rounded=0;orthogonalLoop=1;jettySize=auto;html=1;" edge="1" parent="1" source="88ahwrfj6JSMkXwkCL4q-6" target="88ahwrfj6JSMkXwkCL4q-29">
          <mxGeometry relative="1" as="geometry" />
        </mxCell>
        <mxCell id="88ahwrfj6JSMkXwkCL4q-6" value="ใช่" style="rhombus;whiteSpace=wrap;html=1;" vertex="1" parent="1">
          <mxGeometry x="405" y="730" width="60" height="60" as="geometry" />
        </mxCell>
        <mxCell id="88ahwrfj6JSMkXwkCL4q-20" style="edgeStyle=orthogonalEdgeStyle;rounded=0;orthogonalLoop=1;jettySize=auto;html=1;entryX=0.5;entryY=1;entryDx=0;entryDy=0;" edge="1" parent="1" source="88ahwrfj6JSMkXwkCL4q-14" target="7q3_QXW4xUBUflNoUKIE-19">
          <mxGeometry relative="1" as="geometry">
            <Array as="points">
              <mxPoint x="223" y="745" />
              <mxPoint x="223" y="730" />
              <mxPoint x="223" y="730" />
            </Array>
          </mxGeometry>
        </mxCell>
        <mxCell id="88ahwrfj6JSMkXwkCL4q-14" value="return Error code 067" style="rounded=1;whiteSpace=wrap;html=1;" vertex="1" parent="1">
          <mxGeometry x="133.25" y="730" width="76.75" height="30" as="geometry" />
        </mxCell>
        <mxCell id="88ahwrfj6JSMkXwkCL4q-15" style="edgeStyle=orthogonalEdgeStyle;rounded=0;orthogonalLoop=1;jettySize=auto;html=1;" edge="1" parent="1" source="88ahwrfj6JSMkXwkCL4q-18" target="88ahwrfj6JSMkXwkCL4q-14">
          <mxGeometry relative="1" as="geometry" />
        </mxCell>
        <mxCell id="88ahwrfj6JSMkXwkCL4q-16" value="" style="edgeStyle=orthogonalEdgeStyle;rounded=0;orthogonalLoop=1;jettySize=auto;html=1;" edge="1" parent="1" target="88ahwrfj6JSMkXwkCL4q-18">
          <mxGeometry relative="1" as="geometry">
            <mxPoint x="405" y="760" as="sourcePoint" />
            <mxPoint x="257" y="745" as="targetPoint" />
          </mxGeometry>
        </mxCell>
        <mxCell id="88ahwrfj6JSMkXwkCL4q-17" value="ไม่" style="edgeLabel;html=1;align=center;verticalAlign=middle;resizable=0;points=[];" vertex="1" connectable="0" parent="88ahwrfj6JSMkXwkCL4q-16">
          <mxGeometry x="-0.7326" relative="1" as="geometry">
            <mxPoint x="-16" as="offset" />
          </mxGeometry>
        </mxCell>
        <mxCell id="88ahwrfj6JSMkXwkCL4q-18" value="สร้างข้อมูล ActivityLog&lt;span style=&quot;font-size: medium; text-align: start;&quot;&gt;&lt;/span&gt;" style="rounded=1;whiteSpace=wrap;html=1;" vertex="1" parent="1">
          <mxGeometry x="291.5" y="780" width="77.5" height="40" as="geometry" />
        </mxCell>
        <mxCell id="88ahwrfj6JSMkXwkCL4q-19" value="บันทึกข้อมูล&lt;span style=&quot;font-size: medium; text-align: start;&quot;&gt;&lt;/span&gt;" style="rounded=1;whiteSpace=wrap;html=1;" vertex="1" parent="1">
          <mxGeometry x="192" y="780" width="77.5" height="40" as="geometry" />
        </mxCell>
        <mxCell id="88ahwrfj6JSMkXwkCL4q-29" value="ดึงข้อมูลหัวข้อหลัก ข้อมูลสำคัญทางการเงิน ที่ Active" style="rounded=1;whiteSpace=wrap;html=1;" vertex="1" parent="1">
          <mxGeometry x="382" y="840" width="120" height="40" as="geometry" />
        </mxCell>
        <mxCell id="88ahwrfj6JSMkXwkCL4q-30" style="edgeStyle=orthogonalEdgeStyle;rounded=0;orthogonalLoop=1;jettySize=auto;html=1;" edge="1" parent="1" source="88ahwrfj6JSMkXwkCL4q-32">
          <mxGeometry relative="1" as="geometry">
            <mxPoint x="488.05555555555543" y="1010.0458190148911" as="targetPoint" />
          </mxGeometry>
        </mxCell>
        <mxCell id="88ahwrfj6JSMkXwkCL4q-31" value="ใช่" style="edgeLabel;html=1;align=center;verticalAlign=middle;resizable=0;points=[];" vertex="1" connectable="0" parent="88ahwrfj6JSMkXwkCL4q-30">
          <mxGeometry x="-0.076" y="-3" relative="1" as="geometry">
            <mxPoint as="offset" />
          </mxGeometry>
        </mxCell>
        <mxCell id="88ahwrfj6JSMkXwkCL4q-32" value="มี?" style="rhombus;whiteSpace=wrap;html=1;" vertex="1" parent="1">
          <mxGeometry x="412" y="910" width="48.5" height="40" as="geometry" />
        </mxCell>
        <mxCell id="88ahwrfj6JSMkXwkCL4q-33" value="" style="edgeStyle=orthogonalEdgeStyle;rounded=0;orthogonalLoop=1;jettySize=auto;html=1;" edge="1" parent="1" source="88ahwrfj6JSMkXwkCL4q-29" target="88ahwrfj6JSMkXwkCL4q-32">
          <mxGeometry relative="1" as="geometry" />
        </mxCell>
        <mxCell id="88ahwrfj6JSMkXwkCL4q-52" style="edgeStyle=orthogonalEdgeStyle;rounded=0;orthogonalLoop=1;jettySize=auto;html=1;entryX=0.05;entryY=0.76;entryDx=0;entryDy=0;entryPerimeter=0;" edge="1" parent="1" source="88ahwrfj6JSMkXwkCL4q-34" target="7q3_QXW4xUBUflNoUKIE-19">
          <mxGeometry relative="1" as="geometry">
            <Array as="points">
              <mxPoint x="120" y="915" />
              <mxPoint x="120" y="710" />
              <mxPoint x="200" y="710" />
            </Array>
          </mxGeometry>
        </mxCell>
        <mxCell id="88ahwrfj6JSMkXwkCL4q-34" value="return Error code 061" style="rounded=1;whiteSpace=wrap;html=1;" vertex="1" parent="1">
          <mxGeometry x="140.5" y="890" width="80" height="50" as="geometry" />
        </mxCell>
        <mxCell id="88ahwrfj6JSMkXwkCL4q-35" style="edgeStyle=orthogonalEdgeStyle;rounded=0;orthogonalLoop=1;jettySize=auto;html=1;" edge="1" parent="1" source="88ahwrfj6JSMkXwkCL4q-38" target="88ahwrfj6JSMkXwkCL4q-34">
          <mxGeometry relative="1" as="geometry" />
        </mxCell>
        <mxCell id="88ahwrfj6JSMkXwkCL4q-36" value="" style="edgeStyle=orthogonalEdgeStyle;rounded=0;orthogonalLoop=1;jettySize=auto;html=1;" edge="1" parent="1" source="88ahwrfj6JSMkXwkCL4q-32" target="88ahwrfj6JSMkXwkCL4q-38">
          <mxGeometry relative="1" as="geometry">
            <mxPoint x="412.25" y="930" as="sourcePoint" />
            <mxPoint x="264.25" y="915" as="targetPoint" />
          </mxGeometry>
        </mxCell>
        <mxCell id="88ahwrfj6JSMkXwkCL4q-37" value="ไม่" style="edgeLabel;html=1;align=center;verticalAlign=middle;resizable=0;points=[];" vertex="1" connectable="0" parent="88ahwrfj6JSMkXwkCL4q-36">
          <mxGeometry x="-0.7326" relative="1" as="geometry">
            <mxPoint as="offset" />
          </mxGeometry>
        </mxCell>
        <mxCell id="88ahwrfj6JSMkXwkCL4q-38" value="สร้างข้อมูล ActivityLog&lt;span style=&quot;font-size: medium; text-align: start;&quot;&gt;&lt;/span&gt;" style="rounded=1;whiteSpace=wrap;html=1;" vertex="1" parent="1">
          <mxGeometry x="298.75" y="950" width="77.5" height="40" as="geometry" />
        </mxCell>
        <mxCell id="88ahwrfj6JSMkXwkCL4q-39" value="บันทึกข้อมูล&lt;span style=&quot;font-size: medium; text-align: start;&quot;&gt;&lt;/span&gt;" style="rounded=1;whiteSpace=wrap;html=1;" vertex="1" parent="1">
          <mxGeometry x="199.25" y="950" width="77.5" height="40" as="geometry" />
        </mxCell>
        <mxCell id="88ahwrfj6JSMkXwkCL4q-41" value="ดึงข้อมูลหัวข้อ ข้อมูลสำคัญทางการเงิน ที่ Active" style="rounded=1;whiteSpace=wrap;html=1;" vertex="1" parent="1">
          <mxGeometry x="380" y="1000" width="120" height="40" as="geometry" />
        </mxCell>
        <mxCell id="88ahwrfj6JSMkXwkCL4q-42" style="edgeStyle=orthogonalEdgeStyle;rounded=0;orthogonalLoop=1;jettySize=auto;html=1;entryX=0.495;entryY=0.041;entryDx=0;entryDy=0;entryPerimeter=0;" edge="1" parent="1" source="88ahwrfj6JSMkXwkCL4q-44" target="88ahwrfj6JSMkXwkCL4q-55">
          <mxGeometry relative="1" as="geometry">
            <mxPoint x="490" y="1130" as="targetPoint" />
            <Array as="points" />
          </mxGeometry>
        </mxCell>
        <mxCell id="88ahwrfj6JSMkXwkCL4q-43" value="ใช่" style="edgeLabel;html=1;align=center;verticalAlign=middle;resizable=0;points=[];" vertex="1" connectable="0" parent="88ahwrfj6JSMkXwkCL4q-42">
          <mxGeometry x="-0.076" y="-3" relative="1" as="geometry">
            <mxPoint as="offset" />
          </mxGeometry>
        </mxCell>
        <mxCell id="88ahwrfj6JSMkXwkCL4q-44" value="มี?" style="rhombus;whiteSpace=wrap;html=1;" vertex="1" parent="1">
          <mxGeometry x="410" y="1070" width="48.5" height="40" as="geometry" />
        </mxCell>
        <mxCell id="88ahwrfj6JSMkXwkCL4q-45" value="" style="edgeStyle=orthogonalEdgeStyle;rounded=0;orthogonalLoop=1;jettySize=auto;html=1;" edge="1" parent="1" source="88ahwrfj6JSMkXwkCL4q-41" target="88ahwrfj6JSMkXwkCL4q-44">
          <mxGeometry relative="1" as="geometry" />
        </mxCell>
        <mxCell id="88ahwrfj6JSMkXwkCL4q-53" style="edgeStyle=orthogonalEdgeStyle;rounded=0;orthogonalLoop=1;jettySize=auto;html=1;entryX=0.5;entryY=0;entryDx=0;entryDy=0;" edge="1" parent="1" source="88ahwrfj6JSMkXwkCL4q-46" target="7q3_QXW4xUBUflNoUKIE-124">
          <mxGeometry relative="1" as="geometry" />
        </mxCell>
        <mxCell id="88ahwrfj6JSMkXwkCL4q-46" value="return Error code 062" style="rounded=1;whiteSpace=wrap;html=1;" vertex="1" parent="1">
          <mxGeometry x="138.5" y="1050" width="80" height="50" as="geometry" />
        </mxCell>
        <mxCell id="88ahwrfj6JSMkXwkCL4q-47" style="edgeStyle=orthogonalEdgeStyle;rounded=0;orthogonalLoop=1;jettySize=auto;html=1;" edge="1" parent="1" source="88ahwrfj6JSMkXwkCL4q-50" target="88ahwrfj6JSMkXwkCL4q-46">
          <mxGeometry relative="1" as="geometry" />
        </mxCell>
        <mxCell id="88ahwrfj6JSMkXwkCL4q-48" value="" style="edgeStyle=orthogonalEdgeStyle;rounded=0;orthogonalLoop=1;jettySize=auto;html=1;" edge="1" parent="1" source="88ahwrfj6JSMkXwkCL4q-44" target="88ahwrfj6JSMkXwkCL4q-50">
          <mxGeometry relative="1" as="geometry">
            <mxPoint x="410.25" y="1090" as="sourcePoint" />
            <mxPoint x="262.25" y="1075" as="targetPoint" />
          </mxGeometry>
        </mxCell>
        <mxCell id="88ahwrfj6JSMkXwkCL4q-49" value="ไม่" style="edgeLabel;html=1;align=center;verticalAlign=middle;resizable=0;points=[];" vertex="1" connectable="0" parent="88ahwrfj6JSMkXwkCL4q-48">
          <mxGeometry x="-0.7326" relative="1" as="geometry">
            <mxPoint as="offset" />
          </mxGeometry>
        </mxCell>
        <mxCell id="88ahwrfj6JSMkXwkCL4q-50" value="สร้างข้อมูล ActivityLog&lt;span style=&quot;font-size: medium; text-align: start;&quot;&gt;&lt;/span&gt;" style="rounded=1;whiteSpace=wrap;html=1;" vertex="1" parent="1">
          <mxGeometry x="296.75" y="1110" width="77.5" height="40" as="geometry" />
        </mxCell>
        <mxCell id="88ahwrfj6JSMkXwkCL4q-51" value="บันทึกข้อมูล&lt;span style=&quot;font-size: medium; text-align: start;&quot;&gt;&lt;/span&gt;" style="rounded=1;whiteSpace=wrap;html=1;" vertex="1" parent="1">
          <mxGeometry x="197.25" y="1110" width="77.5" height="40" as="geometry" />
        </mxCell>
        <mxCell id="88ahwrfj6JSMkXwkCL4q-54" value="" style="group" vertex="1" connectable="0" parent="1">
          <mxGeometry x="377.87" y="1520" width="126" height="290" as="geometry" />
        </mxCell>
        <mxCell id="7q3_QXW4xUBUflNoUKIE-121" value="สิ้นสุด" style="ellipse;whiteSpace=wrap;html=1;" vertex="1" parent="88ahwrfj6JSMkXwkCL4q-54">
          <mxGeometry y="240" width="100" height="50" as="geometry" />
        </mxCell>
        <mxCell id="7q3_QXW4xUBUflNoUKIE-91" value="" style="group" vertex="1" connectable="0" parent="88ahwrfj6JSMkXwkCL4q-54">
          <mxGeometry x="6" width="120" height="177.5" as="geometry" />
        </mxCell>
        <mxCell id="7q3_QXW4xUBUflNoUKIE-92" value="สร้างรายละเอียดหัวข้อ&lt;br&gt;ข้อมูลสำคัญทางการเงิน&lt;span style=&quot;font-size: medium; text-align: start;&quot;&gt;&lt;/span&gt;" style="rounded=1;whiteSpace=wrap;html=1;" vertex="1" parent="7q3_QXW4xUBUflNoUKIE-91">
          <mxGeometry x="-13.380000000000003" width="125" height="40" as="geometry" />
        </mxCell>
        <mxCell id="7q3_QXW4xUBUflNoUKIE-93" value="สร้างข้อมูล ActivityLog&lt;span style=&quot;font-size: medium; text-align: start;&quot;&gt;&lt;/span&gt;" style="rounded=1;whiteSpace=wrap;html=1;" vertex="1" parent="7q3_QXW4xUBUflNoUKIE-91">
          <mxGeometry x="6.25" y="67.5" width="77.5" height="40" as="geometry" />
        </mxCell>
        <mxCell id="7q3_QXW4xUBUflNoUKIE-94" value="" style="edgeStyle=orthogonalEdgeStyle;rounded=0;orthogonalLoop=1;jettySize=auto;html=1;entryX=0.543;entryY=-0.009;entryDx=0;entryDy=0;entryPerimeter=0;" edge="1" parent="7q3_QXW4xUBUflNoUKIE-91" source="7q3_QXW4xUBUflNoUKIE-92" target="7q3_QXW4xUBUflNoUKIE-93">
          <mxGeometry relative="1" as="geometry" />
        </mxCell>
        <mxCell id="7q3_QXW4xUBUflNoUKIE-95" value="บันทึกข้อมูล&lt;span style=&quot;font-size: medium; text-align: start;&quot;&gt;&lt;/span&gt;" style="rounded=1;whiteSpace=wrap;html=1;" vertex="1" parent="7q3_QXW4xUBUflNoUKIE-91">
          <mxGeometry x="6.25" y="137.5" width="77.5" height="40" as="geometry" />
        </mxCell>
        <mxCell id="7q3_QXW4xUBUflNoUKIE-96" value="" style="edgeStyle=orthogonalEdgeStyle;rounded=0;orthogonalLoop=1;jettySize=auto;html=1;" edge="1" parent="7q3_QXW4xUBUflNoUKIE-91" source="7q3_QXW4xUBUflNoUKIE-93" target="7q3_QXW4xUBUflNoUKIE-95">
          <mxGeometry relative="1" as="geometry" />
        </mxCell>
        <mxCell id="7q3_QXW4xUBUflNoUKIE-119" style="edgeStyle=orthogonalEdgeStyle;rounded=0;orthogonalLoop=1;jettySize=auto;html=1;entryX=0.5;entryY=0;entryDx=0;entryDy=0;" edge="1" parent="88ahwrfj6JSMkXwkCL4q-54" source="7q3_QXW4xUBUflNoUKIE-95" target="7q3_QXW4xUBUflNoUKIE-121">
          <mxGeometry relative="1" as="geometry">
            <mxPoint x="-108.90000000000009" y="167.5" as="targetPoint" />
          </mxGeometry>
        </mxCell>
        <mxCell id="88ahwrfj6JSMkXwkCL4q-55" value="ตรวจสอบข้อมูลรายละเอียดหัวข้อ ที่ส่งมา มีหัวข้อ ข้อมูลที่สำคัญทางการเงินทุกอัน" style="rounded=1;whiteSpace=wrap;html=1;" vertex="1" parent="1">
          <mxGeometry x="346.37" y="1160" width="165.25" height="50" as="geometry" />
        </mxCell>
        <mxCell id="88ahwrfj6JSMkXwkCL4q-56" value="ใช่" style="edgeLabel;html=1;align=center;verticalAlign=middle;resizable=0;points=[];" vertex="1" connectable="0" parent="1">
          <mxGeometry x="478.1801702688049" y="1271.908782284147" as="geometry" />
        </mxCell>
        <mxCell id="88ahwrfj6JSMkXwkCL4q-67" value="" style="edgeStyle=orthogonalEdgeStyle;rounded=0;orthogonalLoop=1;jettySize=auto;html=1;" edge="1" parent="1" source="88ahwrfj6JSMkXwkCL4q-57" target="88ahwrfj6JSMkXwkCL4q-66">
          <mxGeometry relative="1" as="geometry" />
        </mxCell>
        <mxCell id="88ahwrfj6JSMkXwkCL4q-57" value="มี?" style="rhombus;whiteSpace=wrap;html=1;" vertex="1" parent="1">
          <mxGeometry x="404.75" y="1230" width="48.5" height="40" as="geometry" />
        </mxCell>
        <mxCell id="88ahwrfj6JSMkXwkCL4q-58" value="" style="edgeStyle=orthogonalEdgeStyle;rounded=0;orthogonalLoop=1;jettySize=auto;html=1;" edge="1" parent="1" source="88ahwrfj6JSMkXwkCL4q-55" target="88ahwrfj6JSMkXwkCL4q-57">
          <mxGeometry relative="1" as="geometry" />
        </mxCell>
        <mxCell id="88ahwrfj6JSMkXwkCL4q-65" style="edgeStyle=orthogonalEdgeStyle;rounded=0;orthogonalLoop=1;jettySize=auto;html=1;entryX=1;entryY=0;entryDx=0;entryDy=0;" edge="1" parent="1" source="88ahwrfj6JSMkXwkCL4q-59" target="7q3_QXW4xUBUflNoUKIE-124">
          <mxGeometry relative="1" as="geometry" />
        </mxCell>
        <mxCell id="88ahwrfj6JSMkXwkCL4q-59" value="return Error code 068" style="rounded=1;whiteSpace=wrap;html=1;" vertex="1" parent="1">
          <mxGeometry x="133.25" y="1210" width="80" height="50" as="geometry" />
        </mxCell>
        <mxCell id="88ahwrfj6JSMkXwkCL4q-60" style="edgeStyle=orthogonalEdgeStyle;rounded=0;orthogonalLoop=1;jettySize=auto;html=1;" edge="1" parent="1" source="88ahwrfj6JSMkXwkCL4q-63" target="88ahwrfj6JSMkXwkCL4q-59">
          <mxGeometry relative="1" as="geometry" />
        </mxCell>
        <mxCell id="88ahwrfj6JSMkXwkCL4q-61" value="" style="edgeStyle=orthogonalEdgeStyle;rounded=0;orthogonalLoop=1;jettySize=auto;html=1;" edge="1" parent="1" source="88ahwrfj6JSMkXwkCL4q-57" target="88ahwrfj6JSMkXwkCL4q-63">
          <mxGeometry relative="1" as="geometry">
            <mxPoint x="405" y="1250" as="sourcePoint" />
            <mxPoint x="257" y="1235" as="targetPoint" />
          </mxGeometry>
        </mxCell>
        <mxCell id="88ahwrfj6JSMkXwkCL4q-62" value="ไม่" style="edgeLabel;html=1;align=center;verticalAlign=middle;resizable=0;points=[];" vertex="1" connectable="0" parent="88ahwrfj6JSMkXwkCL4q-61">
          <mxGeometry x="-0.7326" relative="1" as="geometry">
            <mxPoint as="offset" />
          </mxGeometry>
        </mxCell>
        <mxCell id="88ahwrfj6JSMkXwkCL4q-63" value="สร้างข้อมูล ActivityLog&lt;span style=&quot;font-size: medium; text-align: start;&quot;&gt;&lt;/span&gt;" style="rounded=1;whiteSpace=wrap;html=1;" vertex="1" parent="1">
          <mxGeometry x="291.5" y="1270" width="77.5" height="40" as="geometry" />
        </mxCell>
        <mxCell id="88ahwrfj6JSMkXwkCL4q-64" value="บันทึกข้อมูล&lt;span style=&quot;font-size: medium; text-align: start;&quot;&gt;&lt;/span&gt;" style="rounded=1;whiteSpace=wrap;html=1;" vertex="1" parent="1">
          <mxGeometry x="192" y="1270" width="77.5" height="40" as="geometry" />
        </mxCell>
        <mxCell id="88ahwrfj6JSMkXwkCL4q-73" style="edgeStyle=orthogonalEdgeStyle;rounded=0;orthogonalLoop=1;jettySize=auto;html=1;entryX=0.536;entryY=0.033;entryDx=0;entryDy=0;entryPerimeter=0;" edge="1" parent="1" source="88ahwrfj6JSMkXwkCL4q-66" target="88ahwrfj6JSMkXwkCL4q-70">
          <mxGeometry relative="1" as="geometry" />
        </mxCell>
        <mxCell id="88ahwrfj6JSMkXwkCL4q-66" value="ตรวจสอบรายละเอียดหัวข้อ ข้อมูลสำคัญทางการเงิน&lt;span style=&quot;font-variant-numeric: normal; font-variant-east-asian: normal; font-variant-alternates: normal; font-kerning: auto; font-optical-sizing: auto; font-feature-settings: normal; font-variation-settings: normal; font-stretch: normal; line-height: normal; font-family: &amp;quot;Helvetica Neue&amp;quot;;&quot; class=&quot;s1&quot;&gt; &lt;/span&gt;มีในระบบแล้ว ?" style="rounded=1;whiteSpace=wrap;html=1;" vertex="1" parent="1">
          <mxGeometry x="364.99" y="1340" width="132" height="60" as="geometry" />
        </mxCell>
        <mxCell id="88ahwrfj6JSMkXwkCL4q-72" style="edgeStyle=orthogonalEdgeStyle;rounded=0;orthogonalLoop=1;jettySize=auto;html=1;entryX=0.476;entryY=-0.024;entryDx=0;entryDy=0;entryPerimeter=0;" edge="1" parent="1" source="88ahwrfj6JSMkXwkCL4q-70" target="7q3_QXW4xUBUflNoUKIE-92">
          <mxGeometry relative="1" as="geometry" />
        </mxCell>
        <mxCell id="88ahwrfj6JSMkXwkCL4q-74" value="ไม่" style="edgeLabel;html=1;align=center;verticalAlign=middle;resizable=0;points=[];" vertex="1" connectable="0" parent="88ahwrfj6JSMkXwkCL4q-72">
          <mxGeometry x="-0.227" y="-1" relative="1" as="geometry">
            <mxPoint as="offset" />
          </mxGeometry>
        </mxCell>
        <mxCell id="88ahwrfj6JSMkXwkCL4q-80" value="" style="edgeStyle=orthogonalEdgeStyle;rounded=0;orthogonalLoop=1;jettySize=auto;html=1;" edge="1" parent="1" source="88ahwrfj6JSMkXwkCL4q-70" target="88ahwrfj6JSMkXwkCL4q-77">
          <mxGeometry relative="1" as="geometry" />
        </mxCell>
        <mxCell id="88ahwrfj6JSMkXwkCL4q-70" value="มี?" style="rhombus;whiteSpace=wrap;html=1;" vertex="1" parent="1">
          <mxGeometry x="404.74" y="1440" width="48.5" height="40" as="geometry" />
        </mxCell>
        <mxCell id="88ahwrfj6JSMkXwkCL4q-81" style="edgeStyle=orthogonalEdgeStyle;rounded=0;orthogonalLoop=1;jettySize=auto;html=1;entryX=1;entryY=1;entryDx=0;entryDy=0;" edge="1" parent="1" source="88ahwrfj6JSMkXwkCL4q-75" target="7q3_QXW4xUBUflNoUKIE-124">
          <mxGeometry relative="1" as="geometry" />
        </mxCell>
        <mxCell id="88ahwrfj6JSMkXwkCL4q-75" value="return Error code 069" style="rounded=1;whiteSpace=wrap;html=1;" vertex="1" parent="1">
          <mxGeometry x="170" y="1510" width="90" height="30" as="geometry" />
        </mxCell>
        <mxCell id="88ahwrfj6JSMkXwkCL4q-76" style="edgeStyle=orthogonalEdgeStyle;rounded=0;orthogonalLoop=1;jettySize=auto;html=1;" edge="1" parent="1" source="88ahwrfj6JSMkXwkCL4q-78" target="88ahwrfj6JSMkXwkCL4q-75">
          <mxGeometry relative="1" as="geometry" />
        </mxCell>
        <mxCell id="88ahwrfj6JSMkXwkCL4q-77" value="สร้างข้อมูล ActivityLog&lt;span style=&quot;font-size: medium; text-align: start;&quot;&gt;&lt;/span&gt;" style="rounded=1;whiteSpace=wrap;html=1;" vertex="1" parent="1">
          <mxGeometry x="300.37" y="1440" width="77.5" height="40" as="geometry" />
        </mxCell>
        <mxCell id="88ahwrfj6JSMkXwkCL4q-79" value="" style="edgeStyle=orthogonalEdgeStyle;rounded=0;orthogonalLoop=1;jettySize=auto;html=1;" edge="1" parent="1" source="88ahwrfj6JSMkXwkCL4q-77" target="88ahwrfj6JSMkXwkCL4q-78">
          <mxGeometry relative="1" as="geometry">
            <mxPoint x="313" y="1460" as="sourcePoint" />
            <mxPoint x="195" y="1530" as="targetPoint" />
          </mxGeometry>
        </mxCell>
        <mxCell id="88ahwrfj6JSMkXwkCL4q-78" value="บันทึกข้อมูล&lt;span style=&quot;font-size: medium; text-align: start;&quot;&gt;&lt;/span&gt;" style="rounded=1;whiteSpace=wrap;html=1;" vertex="1" parent="1">
          <mxGeometry x="176.88" y="1445" width="76.25" height="30" as="geometry" />
        </mxCell>
      </root>
    </mxGraphModel>
  </diagram>
  <diagram id="6iB4fAy36lVMIVn-liD3" name="หน้า-2">
    <mxGraphModel dx="1145" dy="1011" grid="1" gridSize="10" guides="1" tooltips="1" connect="1" arrows="1" fold="1" page="1" pageScale="1" pageWidth="827" pageHeight="1169" math="0" shadow="0">
      <root>
        <mxCell id="0" />
        <mxCell id="1" parent="0" />
        <mxCell id="azRW4HWGFg3w1wkOrQxQ-156" value="เริ่ม" style="ellipse;whiteSpace=wrap;html=1;" vertex="1" parent="1">
          <mxGeometry x="85" y="30" width="80" height="40" as="geometry" />
        </mxCell>
        <mxCell id="azRW4HWGFg3w1wkOrQxQ-157" value="ตรวจสอบสิทธิ์การใช้งาน" style="rounded=1;whiteSpace=wrap;html=1;" vertex="1" parent="1">
          <mxGeometry x="55" y="110" width="140" height="30" as="geometry" />
        </mxCell>
        <mxCell id="azRW4HWGFg3w1wkOrQxQ-158" value="" style="edgeStyle=orthogonalEdgeStyle;rounded=0;orthogonalLoop=1;jettySize=auto;html=1;" edge="1" parent="1" source="azRW4HWGFg3w1wkOrQxQ-156" target="azRW4HWGFg3w1wkOrQxQ-157">
          <mxGeometry relative="1" as="geometry" />
        </mxCell>
        <mxCell id="azRW4HWGFg3w1wkOrQxQ-159" value="มี ?" style="rhombus;whiteSpace=wrap;html=1;" vertex="1" parent="1">
          <mxGeometry x="95" y="170" width="60" height="60" as="geometry" />
        </mxCell>
        <mxCell id="azRW4HWGFg3w1wkOrQxQ-160" value="" style="edgeStyle=orthogonalEdgeStyle;rounded=0;orthogonalLoop=1;jettySize=auto;html=1;" edge="1" parent="1" source="azRW4HWGFg3w1wkOrQxQ-157" target="azRW4HWGFg3w1wkOrQxQ-159">
          <mxGeometry relative="1" as="geometry" />
        </mxCell>
        <mxCell id="azRW4HWGFg3w1wkOrQxQ-161" style="edgeStyle=orthogonalEdgeStyle;rounded=0;orthogonalLoop=1;jettySize=auto;html=1;entryX=-0.022;entryY=0.676;entryDx=0;entryDy=0;entryPerimeter=0;" edge="1" parent="1" source="azRW4HWGFg3w1wkOrQxQ-159" target="azRW4HWGFg3w1wkOrQxQ-174">
          <mxGeometry relative="1" as="geometry">
            <Array as="points">
              <mxPoint x="125" y="706" />
            </Array>
            <mxPoint x="280" y="740" as="targetPoint" />
          </mxGeometry>
        </mxCell>
        <mxCell id="azRW4HWGFg3w1wkOrQxQ-162" value="ไม่" style="edgeLabel;html=1;align=center;verticalAlign=middle;resizable=0;points=[];" vertex="1" connectable="0" parent="azRW4HWGFg3w1wkOrQxQ-161">
          <mxGeometry x="-0.8925" y="1" relative="1" as="geometry">
            <mxPoint as="offset" />
          </mxGeometry>
        </mxCell>
        <mxCell id="azRW4HWGFg3w1wkOrQxQ-163" value="ตรวจสอบ Account &lt;br&gt;สถานะการใช้งาน" style="rounded=1;whiteSpace=wrap;html=1;" vertex="1" parent="1">
          <mxGeometry x="271.35" y="179" width="170" height="40" as="geometry" />
        </mxCell>
        <mxCell id="azRW4HWGFg3w1wkOrQxQ-164" value="" style="edgeStyle=orthogonalEdgeStyle;rounded=0;orthogonalLoop=1;jettySize=auto;html=1;" edge="1" parent="1" source="azRW4HWGFg3w1wkOrQxQ-159" target="azRW4HWGFg3w1wkOrQxQ-163">
          <mxGeometry relative="1" as="geometry">
            <Array as="points">
              <mxPoint x="235" y="200" />
              <mxPoint x="235" y="200" />
            </Array>
          </mxGeometry>
        </mxCell>
        <mxCell id="azRW4HWGFg3w1wkOrQxQ-165" value="ใช่" style="edgeLabel;html=1;align=center;verticalAlign=middle;resizable=0;points=[];" vertex="1" connectable="0" parent="azRW4HWGFg3w1wkOrQxQ-164">
          <mxGeometry x="-0.7797" y="-1" relative="1" as="geometry">
            <mxPoint as="offset" />
          </mxGeometry>
        </mxCell>
        <mxCell id="azRW4HWGFg3w1wkOrQxQ-166" value="มีใน&lt;br&gt;ระบบ &lt;br&gt;?" style="rhombus;whiteSpace=wrap;html=1;" vertex="1" parent="1">
          <mxGeometry x="349" y="258" width="75" height="70" as="geometry" />
        </mxCell>
        <mxCell id="azRW4HWGFg3w1wkOrQxQ-167" value="" style="edgeStyle=orthogonalEdgeStyle;rounded=0;orthogonalLoop=1;jettySize=auto;html=1;" edge="1" parent="1" source="azRW4HWGFg3w1wkOrQxQ-163" target="azRW4HWGFg3w1wkOrQxQ-166">
          <mxGeometry relative="1" as="geometry" />
        </mxCell>
        <mxCell id="azRW4HWGFg3w1wkOrQxQ-168" value="status&lt;br style=&quot;border-color: var(--border-color);&quot;&gt;= 1 ?" style="rhombus;whiteSpace=wrap;html=1;" vertex="1" parent="1">
          <mxGeometry x="377" y="378" width="60" height="60" as="geometry" />
        </mxCell>
        <mxCell id="azRW4HWGFg3w1wkOrQxQ-169" value="" style="edgeStyle=orthogonalEdgeStyle;rounded=0;orthogonalLoop=1;jettySize=auto;html=1;" edge="1" parent="1" source="azRW4HWGFg3w1wkOrQxQ-166" target="azRW4HWGFg3w1wkOrQxQ-168">
          <mxGeometry relative="1" as="geometry" />
        </mxCell>
        <mxCell id="azRW4HWGFg3w1wkOrQxQ-170" value="ใช่" style="edgeLabel;html=1;align=center;verticalAlign=middle;resizable=0;points=[];" vertex="1" connectable="0" parent="azRW4HWGFg3w1wkOrQxQ-169">
          <mxGeometry x="-0.3254" y="2" relative="1" as="geometry">
            <mxPoint x="-2" as="offset" />
          </mxGeometry>
        </mxCell>
        <mxCell id="azRW4HWGFg3w1wkOrQxQ-171" value="Locked&lt;br style=&quot;border-color: var(--border-color);&quot;&gt;= 1 ?&amp;nbsp;" style="rhombus;whiteSpace=wrap;html=1;" vertex="1" parent="1">
          <mxGeometry x="377.75" y="508" width="60" height="60" as="geometry" />
        </mxCell>
        <mxCell id="azRW4HWGFg3w1wkOrQxQ-172" value="" style="edgeStyle=orthogonalEdgeStyle;rounded=0;orthogonalLoop=1;jettySize=auto;html=1;" edge="1" parent="1" source="azRW4HWGFg3w1wkOrQxQ-168" target="azRW4HWGFg3w1wkOrQxQ-171">
          <mxGeometry relative="1" as="geometry" />
        </mxCell>
        <mxCell id="azRW4HWGFg3w1wkOrQxQ-173" value="ไม่" style="edgeLabel;html=1;align=center;verticalAlign=middle;resizable=0;points=[];" vertex="1" connectable="0" parent="azRW4HWGFg3w1wkOrQxQ-172">
          <mxGeometry x="-0.3745" relative="1" as="geometry">
            <mxPoint as="offset" />
          </mxGeometry>
        </mxCell>
        <mxCell id="azRW4HWGFg3w1wkOrQxQ-174" value="1" style="ellipse;whiteSpace=wrap;html=1;aspect=fixed;" vertex="1" parent="1">
          <mxGeometry x="207.5" y="672" width="50" height="50" as="geometry" />
        </mxCell>
        <mxCell id="azRW4HWGFg3w1wkOrQxQ-175" style="edgeStyle=orthogonalEdgeStyle;rounded=0;orthogonalLoop=1;jettySize=auto;html=1;exitX=0.492;exitY=0.949;exitDx=0;exitDy=0;exitPerimeter=0;" edge="1" parent="1" source="azRW4HWGFg3w1wkOrQxQ-176" target="azRW4HWGFg3w1wkOrQxQ-174">
          <mxGeometry relative="1" as="geometry">
            <Array as="points">
              <mxPoint x="176" y="386" />
              <mxPoint x="160" y="386" />
              <mxPoint x="160" y="690" />
            </Array>
          </mxGeometry>
        </mxCell>
        <mxCell id="azRW4HWGFg3w1wkOrQxQ-176" value="rerturn Error Code&amp;nbsp;001&lt;span style=&quot;font-size: medium; text-align: start;&quot;&gt;&lt;/span&gt;" style="rounded=1;whiteSpace=wrap;html=1;" vertex="1" parent="1">
          <mxGeometry x="137.5" y="338" width="77.5" height="40" as="geometry" />
        </mxCell>
        <mxCell id="azRW4HWGFg3w1wkOrQxQ-177" style="edgeStyle=orthogonalEdgeStyle;rounded=0;orthogonalLoop=1;jettySize=auto;html=1;entryX=1;entryY=1;entryDx=0;entryDy=0;" edge="1" parent="1" source="azRW4HWGFg3w1wkOrQxQ-178" target="azRW4HWGFg3w1wkOrQxQ-174">
          <mxGeometry relative="1" as="geometry">
            <Array as="points">
              <mxPoint x="312" y="715" />
              <mxPoint x="254" y="715" />
            </Array>
          </mxGeometry>
        </mxCell>
        <mxCell id="azRW4HWGFg3w1wkOrQxQ-178" value="rerturn Error Code&amp;nbsp;011&lt;span style=&quot;font-size: medium; text-align: start;&quot;&gt;&lt;/span&gt;" style="rounded=1;whiteSpace=wrap;html=1;" vertex="1" parent="1">
          <mxGeometry x="273.5" y="656" width="77.5" height="40" as="geometry" />
        </mxCell>
        <mxCell id="azRW4HWGFg3w1wkOrQxQ-179" value="" style="edgeStyle=orthogonalEdgeStyle;rounded=0;orthogonalLoop=1;jettySize=auto;html=1;entryX=0.467;entryY=0.027;entryDx=0;entryDy=0;entryPerimeter=0;" edge="1" parent="1" source="azRW4HWGFg3w1wkOrQxQ-221" target="azRW4HWGFg3w1wkOrQxQ-223">
          <mxGeometry relative="1" as="geometry" />
        </mxCell>
        <mxCell id="azRW4HWGFg3w1wkOrQxQ-180" style="edgeStyle=orthogonalEdgeStyle;rounded=0;orthogonalLoop=1;jettySize=auto;html=1;" edge="1" parent="1" source="azRW4HWGFg3w1wkOrQxQ-181" target="azRW4HWGFg3w1wkOrQxQ-174">
          <mxGeometry relative="1" as="geometry">
            <mxPoint x="200" y="640" as="targetPoint" />
            <Array as="points">
              <mxPoint x="219" y="670" />
              <mxPoint x="219" y="670" />
            </Array>
          </mxGeometry>
        </mxCell>
        <mxCell id="azRW4HWGFg3w1wkOrQxQ-181" value="rerturn Error Code&amp;nbsp;004&lt;span style=&quot;font-size: medium; text-align: start;&quot;&gt;&lt;/span&gt;" style="rounded=1;whiteSpace=wrap;html=1;" vertex="1" parent="1">
          <mxGeometry x="180" y="478" width="77.5" height="40" as="geometry" />
        </mxCell>
        <mxCell id="azRW4HWGFg3w1wkOrQxQ-182" value="" style="edgeStyle=orthogonalEdgeStyle;rounded=0;orthogonalLoop=1;jettySize=auto;html=1;" edge="1" parent="1" source="azRW4HWGFg3w1wkOrQxQ-168" target="azRW4HWGFg3w1wkOrQxQ-216">
          <mxGeometry relative="1" as="geometry">
            <mxPoint x="310" y="390" as="targetPoint" />
          </mxGeometry>
        </mxCell>
        <mxCell id="azRW4HWGFg3w1wkOrQxQ-183" value="ใช่" style="edgeLabel;html=1;align=center;verticalAlign=middle;resizable=0;points=[];" vertex="1" connectable="0" parent="azRW4HWGFg3w1wkOrQxQ-182">
          <mxGeometry x="-0.4608" y="2" relative="1" as="geometry">
            <mxPoint as="offset" />
          </mxGeometry>
        </mxCell>
        <mxCell id="azRW4HWGFg3w1wkOrQxQ-184" value="" style="edgeStyle=orthogonalEdgeStyle;rounded=0;orthogonalLoop=1;jettySize=auto;html=1;entryX=0.1;entryY=0.5;entryDx=0;entryDy=0;entryPerimeter=0;" edge="1" parent="1" source="azRW4HWGFg3w1wkOrQxQ-171" target="azRW4HWGFg3w1wkOrQxQ-187">
          <mxGeometry relative="1" as="geometry">
            <mxPoint x="429" y="538" as="targetPoint" />
            <Array as="points">
              <mxPoint x="470" y="538" />
              <mxPoint x="470" y="364" />
            </Array>
          </mxGeometry>
        </mxCell>
        <mxCell id="azRW4HWGFg3w1wkOrQxQ-185" value="" style="edgeStyle=orthogonalEdgeStyle;rounded=0;orthogonalLoop=1;jettySize=auto;html=1;" edge="1" parent="1" source="azRW4HWGFg3w1wkOrQxQ-187" target="azRW4HWGFg3w1wkOrQxQ-188">
          <mxGeometry relative="1" as="geometry">
            <mxPoint x="545" y="538" as="targetPoint" />
            <Array as="points">
              <mxPoint x="600" y="364" />
            </Array>
          </mxGeometry>
        </mxCell>
        <mxCell id="azRW4HWGFg3w1wkOrQxQ-186" value="ไม่" style="edgeLabel;html=1;align=center;verticalAlign=middle;resizable=0;points=[];" vertex="1" connectable="0" parent="azRW4HWGFg3w1wkOrQxQ-185">
          <mxGeometry x="-0.3115" y="3" relative="1" as="geometry">
            <mxPoint as="offset" />
          </mxGeometry>
        </mxCell>
        <mxCell id="azRW4HWGFg3w1wkOrQxQ-187" value="Super&lt;br&gt;Admin ?" style="rhombus;whiteSpace=wrap;html=1;" vertex="1" parent="1">
          <mxGeometry x="486.25" y="328" width="66" height="72" as="geometry" />
        </mxCell>
        <mxCell id="azRW4HWGFg3w1wkOrQxQ-188" value="ตรวจสอบสิทธิ์การใช้งาน Company นี้ไหม&lt;span style=&quot;font-size: medium; text-align: start;&quot;&gt;&lt;/span&gt;" style="rounded=1;whiteSpace=wrap;html=1;" vertex="1" parent="1">
          <mxGeometry x="545" y="518" width="110" height="42" as="geometry" />
        </mxCell>
        <mxCell id="azRW4HWGFg3w1wkOrQxQ-189" value="มี ?" style="rhombus;whiteSpace=wrap;html=1;" vertex="1" parent="1">
          <mxGeometry x="567" y="600" width="66" height="72" as="geometry" />
        </mxCell>
        <mxCell id="azRW4HWGFg3w1wkOrQxQ-190" value="" style="edgeStyle=orthogonalEdgeStyle;rounded=0;orthogonalLoop=1;jettySize=auto;html=1;" edge="1" parent="1" source="azRW4HWGFg3w1wkOrQxQ-188" target="azRW4HWGFg3w1wkOrQxQ-189">
          <mxGeometry relative="1" as="geometry" />
        </mxCell>
        <mxCell id="azRW4HWGFg3w1wkOrQxQ-191" value="Company &lt;br&gt;มีในระบบ&lt;br&gt;ไหม ?" style="rhombus;whiteSpace=wrap;html=1;" vertex="1" parent="1">
          <mxGeometry x="555" y="730" width="90" height="80" as="geometry" />
        </mxCell>
        <mxCell id="azRW4HWGFg3w1wkOrQxQ-192" value="" style="edgeStyle=orthogonalEdgeStyle;rounded=0;orthogonalLoop=1;jettySize=auto;html=1;" edge="1" parent="1" source="azRW4HWGFg3w1wkOrQxQ-189" target="azRW4HWGFg3w1wkOrQxQ-191">
          <mxGeometry relative="1" as="geometry" />
        </mxCell>
        <mxCell id="azRW4HWGFg3w1wkOrQxQ-193" value="ใช่" style="edgeLabel;html=1;align=center;verticalAlign=middle;resizable=0;points=[];" vertex="1" connectable="0" parent="azRW4HWGFg3w1wkOrQxQ-192">
          <mxGeometry x="-0.2859" relative="1" as="geometry">
            <mxPoint as="offset" />
          </mxGeometry>
        </mxCell>
        <mxCell id="azRW4HWGFg3w1wkOrQxQ-194" style="edgeStyle=orthogonalEdgeStyle;rounded=0;orthogonalLoop=1;jettySize=auto;html=1;" edge="1" parent="1">
          <mxGeometry relative="1" as="geometry">
            <mxPoint x="747.5" y="636" as="sourcePoint" />
            <mxPoint x="770" y="636" as="targetPoint" />
          </mxGeometry>
        </mxCell>
        <mxCell id="azRW4HWGFg3w1wkOrQxQ-195" style="edgeStyle=orthogonalEdgeStyle;rounded=0;orthogonalLoop=1;jettySize=auto;html=1;" edge="1" parent="1" source="azRW4HWGFg3w1wkOrQxQ-189">
          <mxGeometry relative="1" as="geometry">
            <mxPoint x="670" y="636" as="targetPoint" />
          </mxGeometry>
        </mxCell>
        <mxCell id="azRW4HWGFg3w1wkOrQxQ-196" value="ไม่" style="edgeLabel;html=1;align=center;verticalAlign=middle;resizable=0;points=[];" vertex="1" connectable="0" parent="azRW4HWGFg3w1wkOrQxQ-195">
          <mxGeometry x="-0.0865" y="2" relative="1" as="geometry">
            <mxPoint as="offset" />
          </mxGeometry>
        </mxCell>
        <mxCell id="azRW4HWGFg3w1wkOrQxQ-197" style="edgeStyle=orthogonalEdgeStyle;rounded=0;orthogonalLoop=1;jettySize=auto;html=1;entryX=1;entryY=0.5;entryDx=0;entryDy=0;" edge="1" parent="1" source="azRW4HWGFg3w1wkOrQxQ-199" target="azRW4HWGFg3w1wkOrQxQ-244">
          <mxGeometry relative="1" as="geometry">
            <mxPoint x="493.72" y="890" as="targetPoint" />
          </mxGeometry>
        </mxCell>
        <mxCell id="azRW4HWGFg3w1wkOrQxQ-198" value="ใช่" style="edgeLabel;html=1;align=center;verticalAlign=middle;resizable=0;points=[];" vertex="1" connectable="0" parent="azRW4HWGFg3w1wkOrQxQ-197">
          <mxGeometry x="-0.0994" relative="1" as="geometry">
            <mxPoint as="offset" />
          </mxGeometry>
        </mxCell>
        <mxCell id="azRW4HWGFg3w1wkOrQxQ-199" value="Company &lt;br&gt;Active ?" style="rhombus;whiteSpace=wrap;html=1;" vertex="1" parent="1">
          <mxGeometry x="555" y="850" width="90" height="80" as="geometry" />
        </mxCell>
        <mxCell id="azRW4HWGFg3w1wkOrQxQ-200" value="ใช่" style="edgeStyle=orthogonalEdgeStyle;rounded=0;orthogonalLoop=1;jettySize=auto;html=1;" edge="1" parent="1" source="azRW4HWGFg3w1wkOrQxQ-191" target="azRW4HWGFg3w1wkOrQxQ-199">
          <mxGeometry relative="1" as="geometry" />
        </mxCell>
        <mxCell id="azRW4HWGFg3w1wkOrQxQ-201" value="" style="edgeStyle=orthogonalEdgeStyle;rounded=0;orthogonalLoop=1;jettySize=auto;html=1;" edge="1" parent="1" source="azRW4HWGFg3w1wkOrQxQ-191">
          <mxGeometry relative="1" as="geometry">
            <mxPoint x="695" y="770" as="targetPoint" />
          </mxGeometry>
        </mxCell>
        <mxCell id="azRW4HWGFg3w1wkOrQxQ-202" value="ไม่" style="edgeLabel;html=1;align=center;verticalAlign=middle;resizable=0;points=[];" vertex="1" connectable="0" parent="azRW4HWGFg3w1wkOrQxQ-201">
          <mxGeometry x="-0.1127" relative="1" as="geometry">
            <mxPoint as="offset" />
          </mxGeometry>
        </mxCell>
        <mxCell id="azRW4HWGFg3w1wkOrQxQ-203" value="" style="edgeStyle=orthogonalEdgeStyle;rounded=0;orthogonalLoop=1;jettySize=auto;html=1;" edge="1" parent="1" source="azRW4HWGFg3w1wkOrQxQ-199" target="azRW4HWGFg3w1wkOrQxQ-236">
          <mxGeometry relative="1" as="geometry">
            <mxPoint x="695" y="890" as="targetPoint" />
          </mxGeometry>
        </mxCell>
        <mxCell id="azRW4HWGFg3w1wkOrQxQ-204" value="ไม่" style="edgeLabel;html=1;align=center;verticalAlign=middle;resizable=0;points=[];" vertex="1" connectable="0" parent="azRW4HWGFg3w1wkOrQxQ-203">
          <mxGeometry x="-0.2152" y="2" relative="1" as="geometry">
            <mxPoint as="offset" />
          </mxGeometry>
        </mxCell>
        <mxCell id="azRW4HWGFg3w1wkOrQxQ-205" style="edgeStyle=orthogonalEdgeStyle;rounded=0;orthogonalLoop=1;jettySize=auto;html=1;entryX=1;entryY=0.5;entryDx=0;entryDy=0;" edge="1" parent="1" source="azRW4HWGFg3w1wkOrQxQ-206" target="azRW4HWGFg3w1wkOrQxQ-279">
          <mxGeometry relative="1" as="geometry" />
        </mxCell>
        <mxCell id="azRW4HWGFg3w1wkOrQxQ-206" value="2" style="ellipse;whiteSpace=wrap;html=1;aspect=fixed;" vertex="1" parent="1">
          <mxGeometry x="708.75" y="980" width="50" height="50" as="geometry" />
        </mxCell>
        <mxCell id="azRW4HWGFg3w1wkOrQxQ-207" style="edgeStyle=orthogonalEdgeStyle;rounded=0;orthogonalLoop=1;jettySize=auto;html=1;entryX=1;entryY=0.5;entryDx=0;entryDy=0;" edge="1" parent="1" source="azRW4HWGFg3w1wkOrQxQ-226" target="azRW4HWGFg3w1wkOrQxQ-206">
          <mxGeometry relative="1" as="geometry">
            <mxPoint x="795" y="790" as="targetPoint" />
            <Array as="points">
              <mxPoint x="920" y="702" />
              <mxPoint x="920" y="1005" />
            </Array>
            <mxPoint x="810.0285714285715" y="656" as="sourcePoint" />
          </mxGeometry>
        </mxCell>
        <mxCell id="azRW4HWGFg3w1wkOrQxQ-208" style="edgeStyle=orthogonalEdgeStyle;rounded=0;orthogonalLoop=1;jettySize=auto;html=1;entryX=0;entryY=0.5;entryDx=0;entryDy=0;" edge="1" parent="1" target="azRW4HWGFg3w1wkOrQxQ-232">
          <mxGeometry relative="1" as="geometry">
            <Array as="points">
              <mxPoint x="790" y="770" />
              <mxPoint x="790" y="770" />
            </Array>
            <mxPoint x="772.5" y="770.037037037037" as="sourcePoint" />
          </mxGeometry>
        </mxCell>
        <mxCell id="azRW4HWGFg3w1wkOrQxQ-209" value="" style="edgeStyle=orthogonalEdgeStyle;rounded=0;orthogonalLoop=1;jettySize=auto;html=1;entryX=0.5;entryY=0;entryDx=0;entryDy=0;" edge="1" parent="1" source="azRW4HWGFg3w1wkOrQxQ-210" target="azRW4HWGFg3w1wkOrQxQ-176">
          <mxGeometry relative="1" as="geometry" />
        </mxCell>
        <mxCell id="azRW4HWGFg3w1wkOrQxQ-210" value="บันทึกข้อมูล&lt;span style=&quot;font-size: medium; text-align: start;&quot;&gt;&lt;/span&gt;" style="rounded=1;whiteSpace=wrap;html=1;" vertex="1" parent="1">
          <mxGeometry x="137.5" y="273" width="77.5" height="40" as="geometry" />
        </mxCell>
        <mxCell id="azRW4HWGFg3w1wkOrQxQ-211" value="" style="edgeStyle=orthogonalEdgeStyle;rounded=0;orthogonalLoop=1;jettySize=auto;html=1;" edge="1" parent="1" source="azRW4HWGFg3w1wkOrQxQ-166" target="azRW4HWGFg3w1wkOrQxQ-214">
          <mxGeometry relative="1" as="geometry">
            <mxPoint x="169" y="348" as="targetPoint" />
            <mxPoint x="319" y="293" as="sourcePoint" />
          </mxGeometry>
        </mxCell>
        <mxCell id="azRW4HWGFg3w1wkOrQxQ-212" value="ไม่" style="edgeLabel;html=1;align=center;verticalAlign=middle;resizable=0;points=[];" vertex="1" connectable="0" parent="azRW4HWGFg3w1wkOrQxQ-211">
          <mxGeometry x="-0.6573" y="2" relative="1" as="geometry">
            <mxPoint as="offset" />
          </mxGeometry>
        </mxCell>
        <mxCell id="azRW4HWGFg3w1wkOrQxQ-213" style="edgeStyle=orthogonalEdgeStyle;rounded=0;orthogonalLoop=1;jettySize=auto;html=1;" edge="1" parent="1" source="azRW4HWGFg3w1wkOrQxQ-214" target="azRW4HWGFg3w1wkOrQxQ-210">
          <mxGeometry relative="1" as="geometry" />
        </mxCell>
        <mxCell id="azRW4HWGFg3w1wkOrQxQ-214" value="สร้างข้อมูล ActivityLog&lt;span style=&quot;font-size: medium; text-align: start;&quot;&gt;&lt;/span&gt;" style="rounded=1;whiteSpace=wrap;html=1;" vertex="1" parent="1">
          <mxGeometry x="240" y="273" width="77.5" height="40" as="geometry" />
        </mxCell>
        <mxCell id="azRW4HWGFg3w1wkOrQxQ-215" style="edgeStyle=orthogonalEdgeStyle;rounded=0;orthogonalLoop=1;jettySize=auto;html=1;" edge="1" parent="1" source="azRW4HWGFg3w1wkOrQxQ-216" target="azRW4HWGFg3w1wkOrQxQ-218">
          <mxGeometry relative="1" as="geometry" />
        </mxCell>
        <mxCell id="azRW4HWGFg3w1wkOrQxQ-216" value="สร้างข้อมูล ActivityLog&lt;span style=&quot;font-size: medium; text-align: start;&quot;&gt;&lt;/span&gt;" style="rounded=1;whiteSpace=wrap;html=1;" vertex="1" parent="1">
          <mxGeometry x="271.35" y="388" width="77.5" height="40" as="geometry" />
        </mxCell>
        <mxCell id="azRW4HWGFg3w1wkOrQxQ-217" style="edgeStyle=orthogonalEdgeStyle;rounded=0;orthogonalLoop=1;jettySize=auto;html=1;entryX=0.5;entryY=0;entryDx=0;entryDy=0;" edge="1" parent="1" source="azRW4HWGFg3w1wkOrQxQ-218" target="azRW4HWGFg3w1wkOrQxQ-181">
          <mxGeometry relative="1" as="geometry">
            <Array as="points">
              <mxPoint x="204" y="448" />
            </Array>
          </mxGeometry>
        </mxCell>
        <mxCell id="azRW4HWGFg3w1wkOrQxQ-218" value="บันทึกข้อมูล&lt;span style=&quot;font-size: medium; text-align: start;&quot;&gt;&lt;/span&gt;" style="rounded=1;whiteSpace=wrap;html=1;" vertex="1" parent="1">
          <mxGeometry x="180" y="388" width="77.5" height="40" as="geometry" />
        </mxCell>
        <mxCell id="azRW4HWGFg3w1wkOrQxQ-219" value="" style="edgeStyle=orthogonalEdgeStyle;rounded=0;orthogonalLoop=1;jettySize=auto;html=1;" edge="1" parent="1" source="azRW4HWGFg3w1wkOrQxQ-171" target="azRW4HWGFg3w1wkOrQxQ-221">
          <mxGeometry relative="1" as="geometry">
            <mxPoint x="378" y="538" as="sourcePoint" />
            <mxPoint x="338" y="595" as="targetPoint" />
          </mxGeometry>
        </mxCell>
        <mxCell id="azRW4HWGFg3w1wkOrQxQ-220" value="ใช่" style="edgeLabel;html=1;align=center;verticalAlign=middle;resizable=0;points=[];" vertex="1" connectable="0" parent="azRW4HWGFg3w1wkOrQxQ-219">
          <mxGeometry x="-0.4608" y="1" relative="1" as="geometry">
            <mxPoint as="offset" />
          </mxGeometry>
        </mxCell>
        <mxCell id="azRW4HWGFg3w1wkOrQxQ-221" value="สร้างข้อมูล ActivityLog&lt;span style=&quot;font-size: medium; text-align: start;&quot;&gt;&lt;/span&gt;" style="rounded=1;whiteSpace=wrap;html=1;" vertex="1" parent="1">
          <mxGeometry x="271.35" y="518" width="77.5" height="40" as="geometry" />
        </mxCell>
        <mxCell id="azRW4HWGFg3w1wkOrQxQ-222" value="" style="edgeStyle=orthogonalEdgeStyle;rounded=0;orthogonalLoop=1;jettySize=auto;html=1;" edge="1" parent="1" source="azRW4HWGFg3w1wkOrQxQ-223" target="azRW4HWGFg3w1wkOrQxQ-178">
          <mxGeometry relative="1" as="geometry" />
        </mxCell>
        <mxCell id="azRW4HWGFg3w1wkOrQxQ-223" value="บันทึกข้อมูล&lt;span style=&quot;font-size: medium; text-align: start;&quot;&gt;&lt;/span&gt;" style="rounded=1;whiteSpace=wrap;html=1;" vertex="1" parent="1">
          <mxGeometry x="273.5" y="590" width="77.5" height="40" as="geometry" />
        </mxCell>
        <mxCell id="azRW4HWGFg3w1wkOrQxQ-224" style="edgeStyle=orthogonalEdgeStyle;rounded=0;orthogonalLoop=1;jettySize=auto;html=1;entryX=0.5;entryY=0;entryDx=0;entryDy=0;" edge="1" parent="1" source="azRW4HWGFg3w1wkOrQxQ-225" target="azRW4HWGFg3w1wkOrQxQ-226">
          <mxGeometry relative="1" as="geometry" />
        </mxCell>
        <mxCell id="azRW4HWGFg3w1wkOrQxQ-225" value="บันทึกข้อมูล" style="rounded=1;whiteSpace=wrap;html=1;" vertex="1" parent="1">
          <mxGeometry x="770" y="616" width="77.5" height="40" as="geometry" />
        </mxCell>
        <mxCell id="azRW4HWGFg3w1wkOrQxQ-226" value="rerturn Error Code&amp;nbsp;002&lt;span style=&quot;font-size: medium; text-align: start;&quot;&gt;&lt;/span&gt;" style="rounded=1;whiteSpace=wrap;html=1;" vertex="1" parent="1">
          <mxGeometry x="770" y="682" width="77.5" height="40" as="geometry" />
        </mxCell>
        <mxCell id="azRW4HWGFg3w1wkOrQxQ-227" value="สร้างข้อมูล ActivityLog&lt;span style=&quot;font-size: medium; text-align: start;&quot;&gt;&lt;/span&gt;" style="rounded=1;whiteSpace=wrap;html=1;" vertex="1" parent="1">
          <mxGeometry x="670" y="616" width="77.5" height="40" as="geometry" />
        </mxCell>
        <mxCell id="azRW4HWGFg3w1wkOrQxQ-228" style="edgeStyle=orthogonalEdgeStyle;rounded=0;orthogonalLoop=1;jettySize=auto;html=1;" edge="1" parent="1" source="azRW4HWGFg3w1wkOrQxQ-229">
          <mxGeometry relative="1" as="geometry">
            <mxPoint x="920" y="830" as="targetPoint" />
          </mxGeometry>
        </mxCell>
        <mxCell id="azRW4HWGFg3w1wkOrQxQ-229" value="rerturn Error Code&amp;nbsp;007&lt;span style=&quot;font-size: medium; text-align: start;&quot;&gt;&lt;/span&gt;" style="rounded=1;whiteSpace=wrap;html=1;" vertex="1" parent="1">
          <mxGeometry x="800" y="810" width="77.5" height="40" as="geometry" />
        </mxCell>
        <mxCell id="azRW4HWGFg3w1wkOrQxQ-230" value="สร้างข้อมูล ActivityLog&lt;span style=&quot;font-size: medium; text-align: start;&quot;&gt;&lt;/span&gt;" style="rounded=1;whiteSpace=wrap;html=1;" vertex="1" parent="1">
          <mxGeometry x="695" y="750" width="77.5" height="40" as="geometry" />
        </mxCell>
        <mxCell id="azRW4HWGFg3w1wkOrQxQ-231" style="edgeStyle=orthogonalEdgeStyle;rounded=0;orthogonalLoop=1;jettySize=auto;html=1;" edge="1" parent="1" source="azRW4HWGFg3w1wkOrQxQ-232" target="azRW4HWGFg3w1wkOrQxQ-229">
          <mxGeometry relative="1" as="geometry" />
        </mxCell>
        <mxCell id="azRW4HWGFg3w1wkOrQxQ-232" value="บันทึกข้อมูล" style="rounded=1;whiteSpace=wrap;html=1;" vertex="1" parent="1">
          <mxGeometry x="800" y="750" width="77.5" height="40" as="geometry" />
        </mxCell>
        <mxCell id="azRW4HWGFg3w1wkOrQxQ-233" style="edgeStyle=orthogonalEdgeStyle;rounded=0;orthogonalLoop=1;jettySize=auto;html=1;" edge="1" parent="1" source="azRW4HWGFg3w1wkOrQxQ-234" target="azRW4HWGFg3w1wkOrQxQ-206">
          <mxGeometry relative="1" as="geometry">
            <mxPoint x="839" y="1000" as="targetPoint" />
          </mxGeometry>
        </mxCell>
        <mxCell id="azRW4HWGFg3w1wkOrQxQ-234" value="rerturn Error Code&amp;nbsp;051&lt;span style=&quot;font-size: medium; text-align: start;&quot;&gt;&lt;/span&gt;" style="rounded=1;whiteSpace=wrap;html=1;" vertex="1" parent="1">
          <mxGeometry x="800" y="930" width="77.5" height="40" as="geometry" />
        </mxCell>
        <mxCell id="azRW4HWGFg3w1wkOrQxQ-235" style="edgeStyle=orthogonalEdgeStyle;rounded=0;orthogonalLoop=1;jettySize=auto;html=1;entryX=-0.036;entryY=0.462;entryDx=0;entryDy=0;entryPerimeter=0;" edge="1" parent="1" source="azRW4HWGFg3w1wkOrQxQ-236" target="azRW4HWGFg3w1wkOrQxQ-238">
          <mxGeometry relative="1" as="geometry" />
        </mxCell>
        <mxCell id="azRW4HWGFg3w1wkOrQxQ-236" value="สร้างข้อมูล ActivityLog&lt;span style=&quot;font-size: medium; text-align: start;&quot;&gt;&lt;/span&gt;" style="rounded=1;whiteSpace=wrap;html=1;" vertex="1" parent="1">
          <mxGeometry x="692.5" y="870" width="77.5" height="40" as="geometry" />
        </mxCell>
        <mxCell id="azRW4HWGFg3w1wkOrQxQ-237" style="edgeStyle=orthogonalEdgeStyle;rounded=0;orthogonalLoop=1;jettySize=auto;html=1;" edge="1" parent="1" source="azRW4HWGFg3w1wkOrQxQ-238" target="azRW4HWGFg3w1wkOrQxQ-234">
          <mxGeometry relative="1" as="geometry" />
        </mxCell>
        <mxCell id="azRW4HWGFg3w1wkOrQxQ-238" value="บันทึกข้อมูล" style="rounded=1;whiteSpace=wrap;html=1;" vertex="1" parent="1">
          <mxGeometry x="800" y="870" width="77.5" height="40" as="geometry" />
        </mxCell>
        <mxCell id="azRW4HWGFg3w1wkOrQxQ-239" style="edgeStyle=orthogonalEdgeStyle;rounded=0;orthogonalLoop=1;jettySize=auto;html=1;" edge="1" parent="1" source="azRW4HWGFg3w1wkOrQxQ-240" target="azRW4HWGFg3w1wkOrQxQ-279">
          <mxGeometry relative="1" as="geometry">
            <Array as="points">
              <mxPoint x="110" y="1670" />
            </Array>
          </mxGeometry>
        </mxCell>
        <mxCell id="azRW4HWGFg3w1wkOrQxQ-240" value="1" style="ellipse;whiteSpace=wrap;html=1;aspect=fixed;" vertex="1" parent="1">
          <mxGeometry x="85" y="1420" width="50" height="50" as="geometry" />
        </mxCell>
        <mxCell id="azRW4HWGFg3w1wkOrQxQ-241" value="" style="edgeStyle=orthogonalEdgeStyle;rounded=0;orthogonalLoop=1;jettySize=auto;html=1;" edge="1" parent="1" source="azRW4HWGFg3w1wkOrQxQ-187" target="azRW4HWGFg3w1wkOrQxQ-244">
          <mxGeometry relative="1" as="geometry">
            <mxPoint x="463.72727272727275" y="860.0072727272725" as="targetPoint" />
            <mxPoint x="519" y="400" as="sourcePoint" />
            <Array as="points">
              <mxPoint x="519" y="550" />
              <mxPoint x="450" y="550" />
            </Array>
          </mxGeometry>
        </mxCell>
        <mxCell id="azRW4HWGFg3w1wkOrQxQ-242" value="ใช่" style="edgeLabel;html=1;align=center;verticalAlign=middle;resizable=0;points=[];" vertex="1" connectable="0" parent="azRW4HWGFg3w1wkOrQxQ-241">
          <mxGeometry x="-0.3215" y="2" relative="1" as="geometry">
            <mxPoint as="offset" />
          </mxGeometry>
        </mxCell>
        <mxCell id="azRW4HWGFg3w1wkOrQxQ-243" value="" style="edgeStyle=orthogonalEdgeStyle;rounded=0;orthogonalLoop=1;jettySize=auto;html=1;" edge="1" parent="1" source="azRW4HWGFg3w1wkOrQxQ-244" target="azRW4HWGFg3w1wkOrQxQ-246">
          <mxGeometry relative="1" as="geometry">
            <mxPoint x="445" y="776" as="targetPoint" />
          </mxGeometry>
        </mxCell>
        <mxCell id="azRW4HWGFg3w1wkOrQxQ-244" value="&lt;font style=&quot;font-size: 12px;&quot;&gt;ตรวจสอบ&lt;span style=&quot;text-align: start;&quot;&gt;&lt;/span&gt;รายละเอียดในหัวข้อ&lt;span style=&quot;text-align: start; background-color: initial; font-variant-numeric: normal; font-variant-east-asian: normal; font-variant-alternates: normal; font-kerning: auto; font-optical-sizing: auto; font-feature-settings: normal; font-variation-settings: normal; font-stretch: normal; line-height: normal; font-family: &amp;quot;Helvetica Neue&amp;quot;;&quot; class=&quot;s1&quot;&gt; &lt;/span&gt;&lt;span style=&quot;font-family: &amp;quot;.ThonburiUI&amp;quot;; text-align: start; background-color: initial;&quot;&gt;ข้อมูลสำคัญทางการเงินซ้ำซ้อน&lt;/span&gt;&lt;/font&gt;" style="rounded=1;whiteSpace=wrap;html=1;" vertex="1" parent="1">
          <mxGeometry x="380" y="646" width="130" height="60" as="geometry" />
        </mxCell>
        <mxCell id="azRW4HWGFg3w1wkOrQxQ-245" style="edgeStyle=orthogonalEdgeStyle;rounded=0;orthogonalLoop=1;jettySize=auto;html=1;" edge="1" parent="1" source="azRW4HWGFg3w1wkOrQxQ-246" target="azRW4HWGFg3w1wkOrQxQ-254">
          <mxGeometry relative="1" as="geometry" />
        </mxCell>
        <mxCell id="azRW4HWGFg3w1wkOrQxQ-246" value="ใช่" style="rhombus;whiteSpace=wrap;html=1;" vertex="1" parent="1">
          <mxGeometry x="415" y="740" width="60" height="60" as="geometry" />
        </mxCell>
        <mxCell id="azRW4HWGFg3w1wkOrQxQ-247" style="edgeStyle=orthogonalEdgeStyle;rounded=0;orthogonalLoop=1;jettySize=auto;html=1;entryX=0.5;entryY=1;entryDx=0;entryDy=0;" edge="1" parent="1" source="azRW4HWGFg3w1wkOrQxQ-248" target="azRW4HWGFg3w1wkOrQxQ-174">
          <mxGeometry relative="1" as="geometry">
            <Array as="points">
              <mxPoint x="233" y="755" />
              <mxPoint x="233" y="740" />
              <mxPoint x="233" y="740" />
            </Array>
          </mxGeometry>
        </mxCell>
        <mxCell id="azRW4HWGFg3w1wkOrQxQ-248" value="return Error code 067" style="rounded=1;whiteSpace=wrap;html=1;" vertex="1" parent="1">
          <mxGeometry x="143.25" y="740" width="76.75" height="30" as="geometry" />
        </mxCell>
        <mxCell id="azRW4HWGFg3w1wkOrQxQ-249" style="edgeStyle=orthogonalEdgeStyle;rounded=0;orthogonalLoop=1;jettySize=auto;html=1;" edge="1" parent="1" source="azRW4HWGFg3w1wkOrQxQ-252" target="azRW4HWGFg3w1wkOrQxQ-248">
          <mxGeometry relative="1" as="geometry" />
        </mxCell>
        <mxCell id="azRW4HWGFg3w1wkOrQxQ-250" value="" style="edgeStyle=orthogonalEdgeStyle;rounded=0;orthogonalLoop=1;jettySize=auto;html=1;" edge="1" parent="1" target="azRW4HWGFg3w1wkOrQxQ-252">
          <mxGeometry relative="1" as="geometry">
            <mxPoint x="415" y="770" as="sourcePoint" />
            <mxPoint x="267" y="755" as="targetPoint" />
          </mxGeometry>
        </mxCell>
        <mxCell id="azRW4HWGFg3w1wkOrQxQ-251" value="ไม่" style="edgeLabel;html=1;align=center;verticalAlign=middle;resizable=0;points=[];" vertex="1" connectable="0" parent="azRW4HWGFg3w1wkOrQxQ-250">
          <mxGeometry x="-0.7326" relative="1" as="geometry">
            <mxPoint x="-16" as="offset" />
          </mxGeometry>
        </mxCell>
        <mxCell id="azRW4HWGFg3w1wkOrQxQ-252" value="สร้างข้อมูล ActivityLog&lt;span style=&quot;font-size: medium; text-align: start;&quot;&gt;&lt;/span&gt;" style="rounded=1;whiteSpace=wrap;html=1;" vertex="1" parent="1">
          <mxGeometry x="301.5" y="790" width="77.5" height="40" as="geometry" />
        </mxCell>
        <mxCell id="azRW4HWGFg3w1wkOrQxQ-253" value="บันทึกข้อมูล&lt;span style=&quot;font-size: medium; text-align: start;&quot;&gt;&lt;/span&gt;" style="rounded=1;whiteSpace=wrap;html=1;" vertex="1" parent="1">
          <mxGeometry x="202" y="790" width="77.5" height="40" as="geometry" />
        </mxCell>
        <mxCell id="azRW4HWGFg3w1wkOrQxQ-254" value="ดึงข้อมูลหัวข้อหลัก ข้อมูลสำคัญทางการเงิน ที่ Active" style="rounded=1;whiteSpace=wrap;html=1;" vertex="1" parent="1">
          <mxGeometry x="392" y="850" width="120" height="40" as="geometry" />
        </mxCell>
        <mxCell id="azRW4HWGFg3w1wkOrQxQ-255" style="edgeStyle=orthogonalEdgeStyle;rounded=0;orthogonalLoop=1;jettySize=auto;html=1;" edge="1" parent="1" source="azRW4HWGFg3w1wkOrQxQ-257">
          <mxGeometry relative="1" as="geometry">
            <mxPoint x="498.05555555555543" y="1020.0458190148911" as="targetPoint" />
          </mxGeometry>
        </mxCell>
        <mxCell id="azRW4HWGFg3w1wkOrQxQ-256" value="ใช่" style="edgeLabel;html=1;align=center;verticalAlign=middle;resizable=0;points=[];" vertex="1" connectable="0" parent="azRW4HWGFg3w1wkOrQxQ-255">
          <mxGeometry x="-0.076" y="-3" relative="1" as="geometry">
            <mxPoint as="offset" />
          </mxGeometry>
        </mxCell>
        <mxCell id="azRW4HWGFg3w1wkOrQxQ-257" value="มี?" style="rhombus;whiteSpace=wrap;html=1;" vertex="1" parent="1">
          <mxGeometry x="422" y="920" width="48.5" height="40" as="geometry" />
        </mxCell>
        <mxCell id="azRW4HWGFg3w1wkOrQxQ-258" value="" style="edgeStyle=orthogonalEdgeStyle;rounded=0;orthogonalLoop=1;jettySize=auto;html=1;" edge="1" parent="1" source="azRW4HWGFg3w1wkOrQxQ-254" target="azRW4HWGFg3w1wkOrQxQ-257">
          <mxGeometry relative="1" as="geometry" />
        </mxCell>
        <mxCell id="azRW4HWGFg3w1wkOrQxQ-259" style="edgeStyle=orthogonalEdgeStyle;rounded=0;orthogonalLoop=1;jettySize=auto;html=1;entryX=0.05;entryY=0.76;entryDx=0;entryDy=0;entryPerimeter=0;" edge="1" parent="1" source="azRW4HWGFg3w1wkOrQxQ-260" target="azRW4HWGFg3w1wkOrQxQ-174">
          <mxGeometry relative="1" as="geometry">
            <Array as="points">
              <mxPoint x="130" y="925" />
              <mxPoint x="130" y="720" />
              <mxPoint x="210" y="720" />
            </Array>
          </mxGeometry>
        </mxCell>
        <mxCell id="azRW4HWGFg3w1wkOrQxQ-260" value="return Error code 061" style="rounded=1;whiteSpace=wrap;html=1;" vertex="1" parent="1">
          <mxGeometry x="150.5" y="900" width="80" height="50" as="geometry" />
        </mxCell>
        <mxCell id="azRW4HWGFg3w1wkOrQxQ-261" style="edgeStyle=orthogonalEdgeStyle;rounded=0;orthogonalLoop=1;jettySize=auto;html=1;" edge="1" parent="1" source="azRW4HWGFg3w1wkOrQxQ-264" target="azRW4HWGFg3w1wkOrQxQ-260">
          <mxGeometry relative="1" as="geometry" />
        </mxCell>
        <mxCell id="azRW4HWGFg3w1wkOrQxQ-262" value="" style="edgeStyle=orthogonalEdgeStyle;rounded=0;orthogonalLoop=1;jettySize=auto;html=1;" edge="1" parent="1" source="azRW4HWGFg3w1wkOrQxQ-257" target="azRW4HWGFg3w1wkOrQxQ-264">
          <mxGeometry relative="1" as="geometry">
            <mxPoint x="422.25" y="940" as="sourcePoint" />
            <mxPoint x="274.25" y="925" as="targetPoint" />
          </mxGeometry>
        </mxCell>
        <mxCell id="azRW4HWGFg3w1wkOrQxQ-263" value="ไม่" style="edgeLabel;html=1;align=center;verticalAlign=middle;resizable=0;points=[];" vertex="1" connectable="0" parent="azRW4HWGFg3w1wkOrQxQ-262">
          <mxGeometry x="-0.7326" relative="1" as="geometry">
            <mxPoint as="offset" />
          </mxGeometry>
        </mxCell>
        <mxCell id="azRW4HWGFg3w1wkOrQxQ-264" value="สร้างข้อมูล ActivityLog&lt;span style=&quot;font-size: medium; text-align: start;&quot;&gt;&lt;/span&gt;" style="rounded=1;whiteSpace=wrap;html=1;" vertex="1" parent="1">
          <mxGeometry x="308.75" y="960" width="77.5" height="40" as="geometry" />
        </mxCell>
        <mxCell id="azRW4HWGFg3w1wkOrQxQ-265" value="บันทึกข้อมูล&lt;span style=&quot;font-size: medium; text-align: start;&quot;&gt;&lt;/span&gt;" style="rounded=1;whiteSpace=wrap;html=1;" vertex="1" parent="1">
          <mxGeometry x="209.25" y="960" width="77.5" height="40" as="geometry" />
        </mxCell>
        <mxCell id="azRW4HWGFg3w1wkOrQxQ-266" value="ดึงข้อมูลหัวข้อ ข้อมูลสำคัญทางการเงิน ที่ Active" style="rounded=1;whiteSpace=wrap;html=1;" vertex="1" parent="1">
          <mxGeometry x="390" y="1010" width="120" height="40" as="geometry" />
        </mxCell>
        <mxCell id="azRW4HWGFg3w1wkOrQxQ-267" style="edgeStyle=orthogonalEdgeStyle;rounded=0;orthogonalLoop=1;jettySize=auto;html=1;entryX=0.495;entryY=0.041;entryDx=0;entryDy=0;entryPerimeter=0;" edge="1" parent="1" source="azRW4HWGFg3w1wkOrQxQ-269" target="azRW4HWGFg3w1wkOrQxQ-287">
          <mxGeometry relative="1" as="geometry">
            <mxPoint x="500" y="1140" as="targetPoint" />
            <Array as="points" />
          </mxGeometry>
        </mxCell>
        <mxCell id="azRW4HWGFg3w1wkOrQxQ-268" value="ใช่" style="edgeLabel;html=1;align=center;verticalAlign=middle;resizable=0;points=[];" vertex="1" connectable="0" parent="azRW4HWGFg3w1wkOrQxQ-267">
          <mxGeometry x="-0.076" y="-3" relative="1" as="geometry">
            <mxPoint as="offset" />
          </mxGeometry>
        </mxCell>
        <mxCell id="azRW4HWGFg3w1wkOrQxQ-269" value="มี?" style="rhombus;whiteSpace=wrap;html=1;" vertex="1" parent="1">
          <mxGeometry x="420" y="1080" width="48.5" height="40" as="geometry" />
        </mxCell>
        <mxCell id="azRW4HWGFg3w1wkOrQxQ-270" value="" style="edgeStyle=orthogonalEdgeStyle;rounded=0;orthogonalLoop=1;jettySize=auto;html=1;" edge="1" parent="1" source="azRW4HWGFg3w1wkOrQxQ-266" target="azRW4HWGFg3w1wkOrQxQ-269">
          <mxGeometry relative="1" as="geometry" />
        </mxCell>
        <mxCell id="azRW4HWGFg3w1wkOrQxQ-271" style="edgeStyle=orthogonalEdgeStyle;rounded=0;orthogonalLoop=1;jettySize=auto;html=1;entryX=0.5;entryY=0;entryDx=0;entryDy=0;" edge="1" parent="1" source="azRW4HWGFg3w1wkOrQxQ-272" target="azRW4HWGFg3w1wkOrQxQ-240">
          <mxGeometry relative="1" as="geometry" />
        </mxCell>
        <mxCell id="azRW4HWGFg3w1wkOrQxQ-272" value="return Error code 062" style="rounded=1;whiteSpace=wrap;html=1;" vertex="1" parent="1">
          <mxGeometry x="148.5" y="1060" width="80" height="50" as="geometry" />
        </mxCell>
        <mxCell id="azRW4HWGFg3w1wkOrQxQ-273" style="edgeStyle=orthogonalEdgeStyle;rounded=0;orthogonalLoop=1;jettySize=auto;html=1;" edge="1" parent="1" source="azRW4HWGFg3w1wkOrQxQ-276" target="azRW4HWGFg3w1wkOrQxQ-272">
          <mxGeometry relative="1" as="geometry" />
        </mxCell>
        <mxCell id="azRW4HWGFg3w1wkOrQxQ-274" value="" style="edgeStyle=orthogonalEdgeStyle;rounded=0;orthogonalLoop=1;jettySize=auto;html=1;" edge="1" parent="1" source="azRW4HWGFg3w1wkOrQxQ-269" target="azRW4HWGFg3w1wkOrQxQ-276">
          <mxGeometry relative="1" as="geometry">
            <mxPoint x="420.25" y="1100" as="sourcePoint" />
            <mxPoint x="272.25" y="1085" as="targetPoint" />
          </mxGeometry>
        </mxCell>
        <mxCell id="azRW4HWGFg3w1wkOrQxQ-275" value="ไม่" style="edgeLabel;html=1;align=center;verticalAlign=middle;resizable=0;points=[];" vertex="1" connectable="0" parent="azRW4HWGFg3w1wkOrQxQ-274">
          <mxGeometry x="-0.7326" relative="1" as="geometry">
            <mxPoint as="offset" />
          </mxGeometry>
        </mxCell>
        <mxCell id="azRW4HWGFg3w1wkOrQxQ-276" value="สร้างข้อมูล ActivityLog&lt;span style=&quot;font-size: medium; text-align: start;&quot;&gt;&lt;/span&gt;" style="rounded=1;whiteSpace=wrap;html=1;" vertex="1" parent="1">
          <mxGeometry x="306.75" y="1120" width="77.5" height="40" as="geometry" />
        </mxCell>
        <mxCell id="azRW4HWGFg3w1wkOrQxQ-277" value="บันทึกข้อมูล&lt;span style=&quot;font-size: medium; text-align: start;&quot;&gt;&lt;/span&gt;" style="rounded=1;whiteSpace=wrap;html=1;" vertex="1" parent="1">
          <mxGeometry x="207.25" y="1120" width="77.5" height="40" as="geometry" />
        </mxCell>
        <mxCell id="azRW4HWGFg3w1wkOrQxQ-287" value="ตรวจสอบข้อมูลรายละเอียดหัวข้อ ที่ส่งมา มีหัวข้อ ข้อมูลที่สำคัญทางการเงินทุกอันในฐานข้อมูลไหม" style="rounded=1;whiteSpace=wrap;html=1;" vertex="1" parent="1">
          <mxGeometry x="356.37" y="1170" width="163.63" height="60" as="geometry" />
        </mxCell>
        <mxCell id="azRW4HWGFg3w1wkOrQxQ-289" value="" style="edgeStyle=orthogonalEdgeStyle;rounded=0;orthogonalLoop=1;jettySize=auto;html=1;entryX=0.5;entryY=0;entryDx=0;entryDy=0;" edge="1" parent="1" source="azRW4HWGFg3w1wkOrQxQ-290" target="azRW4HWGFg3w1wkOrQxQ-281">
          <mxGeometry relative="1" as="geometry">
            <mxPoint x="444" y="1360" as="targetPoint" />
          </mxGeometry>
        </mxCell>
        <mxCell id="azRW4HWGFg3w1wkOrQxQ-311" value="ใช่" style="edgeLabel;html=1;align=center;verticalAlign=middle;resizable=0;points=[];" vertex="1" connectable="0" parent="azRW4HWGFg3w1wkOrQxQ-289">
          <mxGeometry x="0.046" y="-1" relative="1" as="geometry">
            <mxPoint x="1" as="offset" />
          </mxGeometry>
        </mxCell>
        <mxCell id="azRW4HWGFg3w1wkOrQxQ-290" value="มี?" style="rhombus;whiteSpace=wrap;html=1;" vertex="1" parent="1">
          <mxGeometry x="420" y="1270" width="48.5" height="40" as="geometry" />
        </mxCell>
        <mxCell id="azRW4HWGFg3w1wkOrQxQ-291" value="" style="edgeStyle=orthogonalEdgeStyle;rounded=0;orthogonalLoop=1;jettySize=auto;html=1;" edge="1" parent="1" source="azRW4HWGFg3w1wkOrQxQ-287" target="azRW4HWGFg3w1wkOrQxQ-290">
          <mxGeometry relative="1" as="geometry" />
        </mxCell>
        <mxCell id="azRW4HWGFg3w1wkOrQxQ-292" style="edgeStyle=orthogonalEdgeStyle;rounded=0;orthogonalLoop=1;jettySize=auto;html=1;entryX=1;entryY=0;entryDx=0;entryDy=0;" edge="1" parent="1" source="azRW4HWGFg3w1wkOrQxQ-293" target="azRW4HWGFg3w1wkOrQxQ-240">
          <mxGeometry relative="1" as="geometry" />
        </mxCell>
        <mxCell id="azRW4HWGFg3w1wkOrQxQ-293" value="return Error code 068" style="rounded=1;whiteSpace=wrap;html=1;" vertex="1" parent="1">
          <mxGeometry x="143.25" y="1220" width="80" height="50" as="geometry" />
        </mxCell>
        <mxCell id="azRW4HWGFg3w1wkOrQxQ-294" style="edgeStyle=orthogonalEdgeStyle;rounded=0;orthogonalLoop=1;jettySize=auto;html=1;" edge="1" parent="1" source="azRW4HWGFg3w1wkOrQxQ-297" target="azRW4HWGFg3w1wkOrQxQ-293">
          <mxGeometry relative="1" as="geometry" />
        </mxCell>
        <mxCell id="azRW4HWGFg3w1wkOrQxQ-295" value="" style="edgeStyle=orthogonalEdgeStyle;rounded=0;orthogonalLoop=1;jettySize=auto;html=1;" edge="1" parent="1" source="azRW4HWGFg3w1wkOrQxQ-290" target="azRW4HWGFg3w1wkOrQxQ-297">
          <mxGeometry relative="1" as="geometry">
            <mxPoint x="415" y="1260" as="sourcePoint" />
            <mxPoint x="267" y="1245" as="targetPoint" />
          </mxGeometry>
        </mxCell>
        <mxCell id="azRW4HWGFg3w1wkOrQxQ-296" value="ไม่" style="edgeLabel;html=1;align=center;verticalAlign=middle;resizable=0;points=[];" vertex="1" connectable="0" parent="azRW4HWGFg3w1wkOrQxQ-295">
          <mxGeometry x="-0.7326" relative="1" as="geometry">
            <mxPoint as="offset" />
          </mxGeometry>
        </mxCell>
        <mxCell id="azRW4HWGFg3w1wkOrQxQ-297" value="สร้างข้อมูล ActivityLog&lt;span style=&quot;font-size: medium; text-align: start;&quot;&gt;&lt;/span&gt;" style="rounded=1;whiteSpace=wrap;html=1;" vertex="1" parent="1">
          <mxGeometry x="301.5" y="1280" width="77.5" height="40" as="geometry" />
        </mxCell>
        <mxCell id="azRW4HWGFg3w1wkOrQxQ-298" value="บันทึกข้อมูล&lt;span style=&quot;font-size: medium; text-align: start;&quot;&gt;&lt;/span&gt;" style="rounded=1;whiteSpace=wrap;html=1;" vertex="1" parent="1">
          <mxGeometry x="202" y="1280" width="77.5" height="40" as="geometry" />
        </mxCell>
        <mxCell id="azRW4HWGFg3w1wkOrQxQ-313" value="" style="group" vertex="1" connectable="0" parent="1">
          <mxGeometry x="380.49" y="1359.9997331716195" width="125" height="330.0402668283805" as="geometry" />
        </mxCell>
        <mxCell id="azRW4HWGFg3w1wkOrQxQ-281" value="แก้ไขรายละเอียดหัวข้อ&lt;br&gt;ข้อมูลสำคัญทางการเงิน&lt;span style=&quot;font-size: medium; text-align: start;&quot;&gt;&lt;/span&gt;" style="rounded=1;whiteSpace=wrap;html=1;" vertex="1" parent="azRW4HWGFg3w1wkOrQxQ-313">
          <mxGeometry y="40.04026682838048" width="125" height="40" as="geometry" />
        </mxCell>
        <mxCell id="azRW4HWGFg3w1wkOrQxQ-282" value="สร้างข้อมูล ActivityLog&lt;span style=&quot;font-size: medium; text-align: start;&quot;&gt;&lt;/span&gt;" style="rounded=1;whiteSpace=wrap;html=1;" vertex="1" parent="azRW4HWGFg3w1wkOrQxQ-313">
          <mxGeometry x="19.629999999999995" y="107.54026682838048" width="77.5" height="40" as="geometry" />
        </mxCell>
        <mxCell id="azRW4HWGFg3w1wkOrQxQ-283" value="" style="edgeStyle=orthogonalEdgeStyle;rounded=0;orthogonalLoop=1;jettySize=auto;html=1;entryX=0.543;entryY=-0.009;entryDx=0;entryDy=0;entryPerimeter=0;" edge="1" parent="azRW4HWGFg3w1wkOrQxQ-313" source="azRW4HWGFg3w1wkOrQxQ-281" target="azRW4HWGFg3w1wkOrQxQ-282">
          <mxGeometry relative="1" as="geometry" />
        </mxCell>
        <mxCell id="azRW4HWGFg3w1wkOrQxQ-284" value="บันทึกข้อมูล&lt;span style=&quot;font-size: medium; text-align: start;&quot;&gt;&lt;/span&gt;" style="rounded=1;whiteSpace=wrap;html=1;" vertex="1" parent="azRW4HWGFg3w1wkOrQxQ-313">
          <mxGeometry x="19.629999999999995" y="177.54026682838048" width="77.5" height="40" as="geometry" />
        </mxCell>
        <mxCell id="azRW4HWGFg3w1wkOrQxQ-285" value="" style="edgeStyle=orthogonalEdgeStyle;rounded=0;orthogonalLoop=1;jettySize=auto;html=1;" edge="1" parent="azRW4HWGFg3w1wkOrQxQ-313" source="azRW4HWGFg3w1wkOrQxQ-282" target="azRW4HWGFg3w1wkOrQxQ-284">
          <mxGeometry relative="1" as="geometry" />
        </mxCell>
        <mxCell id="azRW4HWGFg3w1wkOrQxQ-279" value="สิ้นสุด" style="ellipse;whiteSpace=wrap;html=1;" vertex="1" parent="azRW4HWGFg3w1wkOrQxQ-313">
          <mxGeometry x="7.3799999999999955" y="280.0402668283805" width="100" height="50" as="geometry" />
        </mxCell>
        <mxCell id="azRW4HWGFg3w1wkOrQxQ-286" style="edgeStyle=orthogonalEdgeStyle;rounded=0;orthogonalLoop=1;jettySize=auto;html=1;entryX=0.5;entryY=0;entryDx=0;entryDy=0;" edge="1" parent="azRW4HWGFg3w1wkOrQxQ-313" source="azRW4HWGFg3w1wkOrQxQ-284" target="azRW4HWGFg3w1wkOrQxQ-279">
          <mxGeometry relative="1" as="geometry">
            <mxPoint x="-101.5200000000001" y="207.54026682838048" as="targetPoint" />
          </mxGeometry>
        </mxCell>
      </root>
    </mxGraphModel>
  </diagram>
</mxfile>
